<svg width="85" height="85" viewBox="0 0 85 85" fill="none" xmlns="http://www.w3.org/2000/svg">
<circle cx="42.5" cy="42.5" r="42.5" fill="#ADA8A8"/>
<path d="M52.2305 29.0196V25.4717C52.2305 25.1642 51.8771 24.9943 51.6384 25.1825L30.9474 41.3434C30.7716 41.4801 30.6294 41.6551 30.5315 41.8552C30.4337 42.0553 30.3828 42.275 30.3828 42.4977C30.3828 42.7204 30.4337 42.9402 30.5315 43.1402C30.6294 43.3403 30.7716 43.5153 30.9474 43.6521L51.6384 59.8129C51.8817 60.0011 52.2305 59.8313 52.2305 59.5237V55.9758C52.2305 55.7509 52.125 55.5352 51.9506 55.3975L35.4271 42.5L51.9506 29.598C52.125 29.4603 52.2305 29.2445 52.2305 29.0196Z" fill="black"/>
</svg>
