<svg width="85" height="85" viewBox="0 0 85 85" fill="none" xmlns="http://www.w3.org/2000/svg">
<circle cx="42.5" cy="42.5" r="42.5" fill="#ADA8A8"/>
<path d="M54.1444 41.3435L33.4534 25.1826C33.3994 25.1401 33.3344 25.1136 33.266 25.1063C33.1975 25.099 33.1284 25.1112 33.0666 25.1414C33.0048 25.1715 32.9527 25.2186 32.9164 25.277C32.8801 25.3355 32.861 25.403 32.8613 25.4718V29.0197C32.8613 29.2446 32.9669 29.4604 33.1413 29.5981L49.6647 42.5001L33.1413 55.4022C32.9623 55.5399 32.8613 55.7556 32.8613 55.9805V59.5284C32.8613 59.836 33.2147 60.0058 33.4534 59.8176L54.1444 43.6568C54.3203 43.5196 54.4626 43.3441 54.5604 43.1437C54.6583 42.9433 54.7091 42.7232 54.7091 42.5001C54.7091 42.2771 54.6583 42.057 54.5604 41.8566C54.4626 41.6561 54.3203 41.4807 54.1444 41.3435Z" fill="black"/>
</svg>
