<svg width="26" height="25" viewBox="0 0 26 25" fill="none" xmlns="http://www.w3.org/2000/svg">
<path d="M12.9997 0.00799337C11.306 -0.0513207 9.61739 0.219957 8.0358 0.805447C6.45421 1.39094 5.01246 2.27849 3.79761 3.41452C2.58275 4.55055 1.61999 5.91148 0.967459 7.41514C0.314928 8.9188 -0.0138352 10.534 0.00102047 12.1632C-0.0214213 13.8421 0.326516 15.5065 1.0219 17.0468C1.71728 18.587 2.74432 19.9681 4.03533 21.099L4.09678 23.0188C4.11397 23.5498 4.34548 24.0536 4.74228 24.4234C5.13907 24.7931 5.67001 25 6.22265 25C6.51799 25.0003 6.81016 24.9415 7.08056 24.8273L9.3506 23.864C10.5413 24.1672 11.768 24.3199 12.9997 24.3184C14.6934 24.3777 16.3821 24.1064 17.9637 23.521C19.5454 22.9355 20.9872 22.0479 22.2022 20.9119C23.4171 19.7759 24.38 18.415 25.0326 16.9113C25.6853 15.4077 26.0142 13.7924 25.9995 12.1632C26.0142 10.534 25.6853 8.91892 25.0327 7.41533C24.3802 5.91174 23.4174 4.55088 22.2026 3.41488C20.9877 2.27889 19.5461 1.39133 17.9646 0.805778C16.383 0.220231 14.6933 -0.0511586 12.9997 0.00799337ZM13.0009 22.0464C11.9492 22.0477 10.902 21.9139 9.88709 21.6488C9.41742 21.5273 8.9186 21.5642 8.47378 21.7533L6.44836 22.6121L6.39518 20.9161C6.38411 20.6411 6.31539 20.371 6.19315 20.1221C6.07091 19.8732 5.89767 19.6506 5.6838 19.4677C4.62132 18.5475 3.77547 17.4199 3.20283 16.1602C2.63018 14.9005 2.34393 13.5378 2.36323 12.1632C2.35578 10.8343 2.62847 9.51775 3.16485 8.29296C3.70123 7.06817 4.49017 5.96055 5.48407 5.03693C6.47797 4.11331 7.65623 3.39285 8.94773 2.91901C10.2392 2.44518 11.6172 2.2278 12.9985 2.27999C14.3779 2.23503 15.7526 2.45739 17.0408 2.93382C18.329 3.41025 19.5042 4.13102 20.4966 5.0532C21.4889 5.97538 22.2781 7.08011 22.817 8.3016C23.356 9.52309 23.6338 10.8364 23.6338 12.1632C23.6338 13.49 23.356 14.8033 22.817 16.0248C22.2781 17.2463 21.4889 18.351 20.4966 19.2732C19.5042 20.1954 18.329 20.9161 17.0408 21.3926C15.7526 21.869 14.3779 22.0914 12.9985 22.0464M17.4121 8.62455L14.6789 11.7542L10.7237 9.41862C10.4822 9.27628 10.1956 9.22206 9.91603 9.26585C9.63645 9.30963 9.38253 9.44851 9.20053 9.65718L5.59635 13.7877C5.48839 13.9007 5.40535 14.0335 5.35225 14.1782C5.29916 14.3229 5.27709 14.4764 5.2874 14.6295C5.29771 14.7826 5.34017 14.9321 5.41222 15.069C5.48428 15.2059 5.58443 15.3274 5.70664 15.4261C5.82885 15.5247 5.97059 15.5986 6.1233 15.6432C6.27602 15.6877 6.43654 15.7021 6.59519 15.6854C6.75384 15.6687 6.90733 15.6213 7.0464 15.546C7.18546 15.4708 7.30723 15.3692 7.40435 15.2474L10.3574 11.8678L14.3125 14.2035C14.554 14.3458 14.8407 14.4 15.1203 14.3562C15.3998 14.3124 15.6538 14.1736 15.8358 13.9649L19.2225 10.0855C19.3266 9.97183 19.4061 9.83933 19.4562 9.69575C19.5063 9.55217 19.5261 9.4004 19.5143 9.24938C19.5025 9.09836 19.4594 8.95113 19.3876 8.81635C19.3157 8.68157 19.2166 8.56196 19.0959 8.46455C18.9753 8.36715 18.8356 8.29391 18.6851 8.24915C18.5346 8.20439 18.3764 8.18901 18.2196 8.20392C18.0628 8.21883 17.9107 8.26372 17.7723 8.33596C17.6338 8.40819 17.5106 8.50632 17.4121 8.62455Z" fill="black"/>
</svg>
