<svg width="1905" height="58" viewBox="0 0 1905 58" fill="none" xmlns="http://www.w3.org/2000/svg">
<line x1="836.667" y1="29.5" x2="236" y2="29.5" stroke="url(#paint0_linear_304_172)" stroke-width="2"/>
<circle cx="840" cy="29.5" r="5" transform="rotate(-180 840 29.5)" fill="black"/>
<path d="M880.48 27.84C880.213 27.8667 880 27.8 879.84 27.64C879.707 27.4533 879.64 27.2533 879.64 27.04C879.64 26.8 879.707 26.6 879.84 26.44C880 26.28 880.213 26.2133 880.48 26.24L881.44 26.32C883.12 26.4267 884.413 26.48 885.32 26.48H888.8C889.227 26.48 889.56 26.36 889.8 26.12C890.04 25.8533 890.16 25.5067 890.16 25.08V24.32C890.16 23.8667 890.027 23.52 889.76 23.28C889.52 23.04 889.173 22.92 888.72 22.92C887.307 22.9467 886.08 23.0133 885.04 23.12C884.667 23.12 884.373 23.1333 884.16 23.16C883.893 23.1867 883.68 23.12 883.52 22.96C883.387 22.7733 883.32 22.5733 883.32 22.36C883.32 22.12 883.387 21.92 883.52 21.76C883.68 21.6 883.893 21.5333 884.16 21.56L885.24 21.64L888.76 21.8C889.213 21.8 889.56 21.68 889.8 21.44C890.04 21.2 890.16 20.8533 890.16 20.4V19.68C890.16 19.2267 890.04 18.88 889.8 18.64C889.56 18.3733 889.227 18.24 888.8 18.24C887.707 18.24 886.76 18.2667 885.96 18.32C885.187 18.3467 884.253 18.4 883.16 18.48C882.893 18.5067 882.68 18.44 882.52 18.28C882.387 18.0933 882.32 17.8933 882.32 17.68C882.32 17.44 882.387 17.24 882.52 17.08C882.68 16.92 882.893 16.8533 883.16 16.88L884.24 16.96C886.053 17.0667 887.573 17.12 888.8 17.12C889.227 17.12 889.56 17 889.8 16.76C890.04 16.52 890.16 16.1733 890.16 15.72V13.72C890.16 13.0533 890.347 12.56 890.72 12.24C891.12 11.8933 891.613 11.72 892.2 11.72C892.68 11.72 893.08 11.8133 893.4 12C893.72 12.1867 893.88 12.3733 893.88 12.56C893.88 12.7733 893.667 12.8933 893.24 12.92C893.08 12.9467 892.947 13.04 892.84 13.2C892.76 13.36 892.72 13.5333 892.72 13.72V15.72C892.72 16.1467 892.84 16.4933 893.08 16.76C893.347 17 893.693 17.12 894.12 17.12C895.053 17.12 895.627 17.0933 895.84 17.04C896.08 16.96 896.36 16.7733 896.68 16.48C896.867 16.24 897.067 16.0267 897.28 15.84C897.84 15.28 898.44 15 899.08 15C899.453 15 899.827 15.12 900.2 15.36C900.653 15.6533 901.013 15.9867 901.28 16.36C901.547 16.7333 901.68 17.0667 901.68 17.36C901.68 17.9467 901.213 18.24 900.28 18.24L894.08 18.28C893.653 18.28 893.32 18.4133 893.08 18.68C892.84 18.92 892.72 19.2533 892.72 19.68V20.24C892.72 20.64 892.813 20.96 893 21.2C893.213 21.44 893.507 21.56 893.88 21.56C894.093 21.56 894.32 21.52 894.56 21.44C894.853 21.36 895.093 21.2133 895.28 21C895.493 20.76 895.64 20.6 895.72 20.52C896.307 19.9333 896.893 19.64 897.48 19.64C898.147 19.64 898.88 20.0667 899.68 20.92C899.973 21.2667 900.12 21.6 900.12 21.92C900.12 22.2133 900 22.4533 899.76 22.64C899.52 22.8267 899.173 22.92 898.72 22.92L894.52 22.96C893.32 22.96 892.72 23.4267 892.72 24.36V25.08C892.72 25.5067 892.84 25.8533 893.08 26.12C893.32 26.36 893.653 26.48 894.08 26.48H897.48C898.013 26.48 898.453 26.3733 898.8 26.16C899.173 25.92 899.56 25.6 899.96 25.2C900.547 24.6133 901.133 24.32 901.72 24.32C902.387 24.32 903.12 24.7467 903.92 25.6C904.213 25.9467 904.36 26.28 904.36 26.6C904.36 26.8933 904.24 27.1333 904 27.32C903.76 27.5067 903.413 27.6 902.96 27.6L897.48 27.64L885.32 27.6C884.253 27.6 882.96 27.6533 881.44 27.76L880.48 27.84ZM865.76 38.28C867.2 37.0267 868.6 35.32 869.96 33.16C871.347 31 872.307 28.9733 872.84 27.08C872.947 26.68 873 26.32 873 26C873 25.7067 872.653 25.56 871.96 25.56C870.92 25.5867 869.947 25.64 869.04 25.72C868.853 25.72 868.387 25.7467 867.64 25.8C867.373 25.8267 867.16 25.76 867 25.6C866.867 25.4133 866.8 25.2133 866.8 25C866.8 24.76 866.867 24.56 867 24.4C867.16 24.24 867.373 24.1733 867.64 24.2L869.48 24.32L872 24.44C872.667 24.44 873 24.1067 873 23.44L873.04 14.04C873.04 13.3733 873.227 12.88 873.6 12.56C874 12.2133 874.493 12.04 875.08 12.04C875.56 12.04 875.96 12.1333 876.28 12.32C876.6 12.5067 876.76 12.6933 876.76 12.88C876.76 13.0933 876.547 13.2133 876.12 13.24C875.96 13.2667 875.827 13.36 875.72 13.52C875.64 13.68 875.6 13.8533 875.6 14.04V23.28C875.6 23.5733 875.667 23.8133 875.8 24C875.933 24.16 876.107 24.24 876.32 24.24C876.427 24.24 876.56 24.2 876.72 24.12C876.987 23.96 877.36 23.64 877.84 23.16C878.427 22.5733 879.013 22.28 879.6 22.28C880.267 22.28 881 22.7067 881.8 23.56C882.093 23.9067 882.24 24.24 882.24 24.56C882.24 24.8533 882.12 25.0933 881.88 25.28C881.64 25.4667 881.293 25.56 880.84 25.56L876.6 25.6C875.933 25.6 875.6 25.9333 875.6 26.6V26.8C875.6 27.3333 875.827 27.7467 876.28 28.04C877.773 28.9733 878.973 29.9467 879.88 30.96C880.813 31.9733 881.28 32.8667 881.28 33.64C881.28 34.0667 881.147 34.4133 880.88 34.68C880.613 34.9467 880.307 35.08 879.96 35.08C879.4 35.08 879 34.8133 878.76 34.28C878.147 32.92 877.507 31.7867 876.84 30.88C876.653 30.5867 876.44 30.44 876.2 30.44C876.04 30.44 875.893 30.52 875.76 30.68C875.653 30.84 875.6 31.0533 875.6 31.32L875.64 47.04C875.667 47.52 875.493 47.9067 875.12 48.2C874.747 48.52 874.347 48.68 873.92 48.68C873.627 48.68 873.387 48.5867 873.2 48.4C873.013 48.24 872.933 48 872.96 47.68L873 34.36C873 33.8 872.867 33.52 872.6 33.52C872.36 33.52 872.12 33.7067 871.88 34.08C871.107 35.2267 870.2 36.2933 869.16 37.28C868.12 38.24 867.253 38.9467 866.56 39.4C866.373 39.5067 866.187 39.56 866 39.56C865.813 39.56 865.667 39.5067 865.56 39.4C865.453 39.2667 865.4 39.12 865.4 38.96C865.4 38.6933 865.52 38.4667 865.76 38.28ZM876.56 21C876.8 20.4133 877 19.8533 877.16 19.32C877.347 18.7867 877.547 18.0933 877.76 17.24C877.893 16.7067 878.12 16.3067 878.44 16.04C878.787 15.7733 879.173 15.64 879.6 15.64C880 15.64 880.373 15.7733 880.72 16.04C881.093 16.28 881.373 16.6133 881.56 17.04C881.64 17.2267 881.68 17.4 881.68 17.56C881.68 17.8267 881.587 17.96 881.4 17.96C881.32 17.96 881.213 17.92 881.08 17.84C880.947 17.76 880.827 17.76 880.72 17.84C880.613 17.92 880.48 18.08 880.32 18.32C880.16 18.56 880 18.7867 879.84 19C879.44 19.5067 878.707 20.3467 877.64 21.52C877.4 21.7867 877.16 21.92 876.92 21.92C876.787 21.92 876.68 21.88 876.6 21.8C876.52 21.6933 876.48 21.56 876.48 21.4C876.48 21.24 876.507 21.1067 876.56 21ZM868.08 16.6C868 16.4667 867.96 16.3467 867.96 16.24C867.96 16.1067 868 16 868.08 15.92C868.187 15.84 868.32 15.8 868.48 15.8C868.56 15.8 868.68 15.8267 868.84 15.88C869.587 16.2 870.307 16.8267 871 17.76C871.72 18.6933 872.08 19.6533 872.08 20.64C872.08 21.0933 871.947 21.4533 871.68 21.72C871.413 21.96 871.093 22.08 870.72 22.08C870.427 22.08 870.16 22 869.92 21.84C869.68 21.68 869.507 21.44 869.4 21.12C869.32 20.8533 869.133 20.1333 868.84 18.96C868.76 18.5067 868.653 18.08 868.52 17.68C868.413 17.2533 868.267 16.8933 868.08 16.6ZM887.04 46.96C887.04 47.44 886.853 47.8267 886.48 48.12C886.133 48.44 885.76 48.6 885.36 48.6C885.093 48.6 884.867 48.5067 884.68 48.32C884.52 48.16 884.453 47.92 884.48 47.6V29C884.48 28.7067 884.68 28.56 885.08 28.56C885.56 28.56 885.947 28.6267 886.24 28.76C886.56 28.8933 886.88 29.0667 887.2 29.28C887.52 29.4933 887.747 29.6 887.88 29.6H894.48C894.72 29.6 894.947 29.5467 895.16 29.44C895.4 29.3067 895.613 29.1733 895.8 29.04C895.987 28.88 896.107 28.7733 896.16 28.72C896.373 28.5333 896.613 28.44 896.88 28.44C897.2 28.44 897.56 28.56 897.96 28.8C898.52 29.12 898.96 29.4667 899.28 29.84C899.6 30.2133 899.76 30.4667 899.76 30.6C899.76 30.7867 899.72 30.9333 899.64 31.04C899.56 31.12 899.44 31.2267 899.28 31.36C899.067 31.52 898.893 31.6933 898.76 31.88C898.653 32.0667 898.6 32.3467 898.6 32.72V45.88C898.6 46.4933 898.427 47.0133 898.08 47.44C897.76 47.8667 897.347 48.16 896.84 48.32C896.6 48.4 896.387 48.44 896.2 48.44C895.773 48.44 895.4 48.1867 895.08 47.68C894.76 47.1467 894.253 46.72 893.56 46.4C892.893 46.1067 891.92 45.7867 890.64 45.44C890.373 45.36 890.24 45.2 890.24 44.96C890.24 44.8 890.293 44.6667 890.4 44.56C890.533 44.4533 890.68 44.4133 890.84 44.44C891.533 44.52 892.133 44.5867 892.64 44.64C893.173 44.6933 893.707 44.72 894.24 44.72C894.72 44.72 895.133 44.56 895.48 44.24C895.853 43.8933 896.04 43.36 896.04 42.64V41.4C896.04 40.9467 895.92 40.6 895.68 40.36C895.44 40.12 895.107 39.9867 894.68 39.96C894.413 39.9333 893.947 39.92 893.28 39.92L890.44 39.96C889.907 39.9867 889.227 40 888.4 40C887.973 40 887.64 40.12 887.4 40.36C887.16 40.6 887.04 40.9467 887.04 41.4V46.96ZM887.04 32.56C887.04 33.0133 887.16 33.36 887.4 33.6C887.64 33.84 887.973 33.9733 888.4 34C888.747 34.0267 889.4 34.04 890.36 34.04L894.68 34C895.107 34 895.44 33.88 895.68 33.64C895.92 33.4 896.04 33.0533 896.04 32.6V32.08C896.04 31.6267 895.92 31.28 895.68 31.04C895.44 30.8 895.093 30.68 894.64 30.68H888.44C888.013 30.68 887.667 30.8 887.4 31.04C887.16 31.28 887.04 31.6267 887.04 32.08V32.56ZM887.04 37.24C887.04 37.6933 887.16 38.04 887.4 38.28C887.64 38.52 887.973 38.6533 888.4 38.68C888.747 38.7067 889.4 38.72 890.36 38.72L894.68 38.68C895.107 38.68 895.44 38.56 895.68 38.32C895.92 38.08 896.04 37.7333 896.04 37.28V36.68C896.04 35.7733 895.64 35.3067 894.84 35.28C894.573 35.2533 894.093 35.24 893.4 35.24L890.56 35.28C890.027 35.3067 889.307 35.32 888.4 35.32C887.973 35.32 887.64 35.44 887.4 35.68C887.16 35.92 887.04 36.2667 887.04 36.72V37.24ZM924.24 15.32C923.973 15.3467 923.76 15.28 923.6 15.12C923.467 14.9333 923.4 14.7333 923.4 14.52C923.4 14.28 923.467 14.08 923.6 13.92C923.76 13.76 923.973 13.6933 924.24 13.72L928.32 13.96C928.613 13.9067 928.88 13.7867 929.12 13.6C929.36 13.4133 929.507 13.2933 929.56 13.24C929.96 12.84 930.293 12.64 930.56 12.64C930.987 12.6133 931.427 12.72 931.88 12.96C932.36 13.1733 932.76 13.4533 933.08 13.8C933.4 14.12 933.573 14.3867 933.6 14.6C933.627 14.76 933.6 14.8933 933.52 15C933.44 15.1067 933.36 15.2 933.28 15.28C933.227 15.3333 933.187 15.3733 933.16 15.4C932.92 15.56 932.733 15.7467 932.6 15.96C932.467 16.1467 932.413 16.4267 932.44 16.8V19.32C932.413 19.7733 932.24 20.16 931.92 20.48C931.6 20.8 931.253 20.96 930.88 20.96C930.373 20.96 930.027 20.72 929.84 20.24C929.707 19.8667 929.493 19.68 929.2 19.68L927.64 19.64C927.213 19.64 926.867 19.76 926.6 20C926.36 20.24 926.24 20.5867 926.24 21.04V21.72C926.24 22.7867 926.56 23.48 927.2 23.8C927.76 24.0933 928.453 24.24 929.28 24.24C929.867 24.24 930.48 24.16 931.12 24C931.947 23.7867 932.453 23.3333 932.64 22.64C932.747 22.0533 932.8 21.2667 932.8 20.28C932.8 20.12 932.853 20 932.96 19.92C933.067 19.8133 933.2 19.76 933.36 19.76C933.52 19.76 933.653 19.8133 933.76 19.92C933.867 20.0267 933.92 20.16 933.92 20.32L933.88 21.04C933.88 21.4933 933.987 21.84 934.2 22.08C934.36 22.2667 934.507 22.5333 934.64 22.88C934.8 23.2 934.88 23.4267 934.88 23.56C934.88 24.36 934.373 25.0533 933.36 25.64C932.373 26.2267 931.093 26.52 929.52 26.52C928.107 26.52 926.88 26.28 925.84 25.8C924.933 25.4 924.347 24.8667 924.08 24.2C923.813 23.5067 923.68 22.6 923.68 21.48V17.52C923.68 17.2267 923.88 17.08 924.28 17.08C924.867 17.08 925.44 17.4133 926 18.08C926.213 18.3733 926.44 18.52 926.68 18.52H928.4C928.827 18.52 929.16 18.4 929.4 18.16C929.64 17.92 929.773 17.5733 929.8 17.12L929.84 16.52C929.867 16.0667 929.747 15.72 929.48 15.48C929.24 15.24 928.893 15.12 928.44 15.12C927.4 15.12 926 15.1867 924.24 15.32ZM936.24 15.32C935.973 15.3467 935.76 15.28 935.6 15.12C935.467 14.9333 935.4 14.7333 935.4 14.52C935.4 14.28 935.467 14.08 935.6 13.92C935.76 13.76 935.973 13.6933 936.24 13.72L940.32 13.96C940.613 13.9067 940.88 13.7867 941.12 13.6C941.36 13.4133 941.507 13.2933 941.56 13.24C941.96 12.84 942.293 12.64 942.56 12.64C942.987 12.6133 943.427 12.72 943.88 12.96C944.36 13.1733 944.76 13.4533 945.08 13.8C945.4 14.12 945.573 14.3867 945.6 14.6C945.627 14.76 945.6 14.8933 945.52 15C945.44 15.1067 945.36 15.2 945.28 15.28C945.227 15.3333 945.187 15.3733 945.16 15.4C944.92 15.56 944.733 15.7467 944.6 15.96C944.467 16.1467 944.413 16.4267 944.44 16.8V19.32C944.413 19.7733 944.24 20.16 943.92 20.48C943.6 20.8 943.253 20.96 942.88 20.96C942.373 20.96 942.027 20.72 941.84 20.24C941.707 19.8667 941.493 19.68 941.2 19.68L939.64 19.64C939.213 19.64 938.867 19.76 938.6 20C938.36 20.24 938.24 20.5867 938.24 21.04V21.72C938.24 22.7867 938.56 23.48 939.2 23.8C939.76 24.0933 940.453 24.24 941.28 24.24C941.867 24.24 942.48 24.16 943.12 24C943.947 23.7867 944.453 23.3333 944.64 22.64C944.747 22.0533 944.8 21.2667 944.8 20.28C944.8 20.12 944.853 20 944.96 19.92C945.067 19.8133 945.2 19.76 945.36 19.76C945.52 19.76 945.653 19.8133 945.76 19.92C945.867 20.0267 945.92 20.16 945.92 20.32L945.88 21.04C945.88 21.4933 945.987 21.84 946.2 22.08C946.36 22.2667 946.507 22.5333 946.64 22.88C946.8 23.2 946.88 23.4267 946.88 23.56C946.88 24.36 946.373 25.0533 945.36 25.64C944.373 26.2267 943.093 26.52 941.52 26.52C940.107 26.52 938.88 26.28 937.84 25.8C936.933 25.4 936.347 24.8667 936.08 24.2C935.813 23.5067 935.68 22.6 935.68 21.48V17.52C935.68 17.2267 935.88 17.08 936.28 17.08C936.867 17.08 937.44 17.4133 938 18.08C938.213 18.3733 938.44 18.52 938.68 18.52H940.4C940.827 18.52 941.16 18.4 941.4 18.16C941.64 17.92 941.773 17.5733 941.8 17.12L941.84 16.52C941.867 16.0667 941.747 15.72 941.48 15.48C941.24 15.24 940.893 15.12 940.44 15.12C939.4 15.12 938 15.1867 936.24 15.32ZM913 18.2C912.707 18.04 912.56 17.8533 912.56 17.64C912.56 17.3467 912.8 17.2267 913.28 17.28C914.053 17.36 914.987 17.64 916.08 18.12C917.2 18.6 918.227 19.2 919.16 19.92C920.12 20.64 920.773 21.3733 921.12 22.12C921.2 22.28 921.24 22.44 921.24 22.6C921.24 22.9733 921.107 23.3067 920.84 23.6C920.573 23.8667 920.253 24 919.88 24C919.453 24 919.093 23.8 918.8 23.4C917.973 22.3067 917.04 21.2933 916 20.36C914.96 19.4267 913.96 18.7067 913 18.2ZM923.2 38C922.933 38.0267 922.72 37.96 922.56 37.8C922.427 37.6133 922.36 37.4133 922.36 37.2C922.36 36.96 922.427 36.76 922.56 36.6C922.72 36.44 922.933 36.3733 923.2 36.4L924.16 36.48C925.84 36.5867 927.133 36.64 928.04 36.64H929.12C929.787 36.64 930.12 36.3067 930.12 35.64V33.68C930.12 33.0133 929.787 32.68 929.12 32.68L926.8 32.84C926.587 32.84 926.107 32.8667 925.36 32.92C925.093 32.9467 924.88 32.88 924.72 32.72C924.587 32.5333 924.52 32.3333 924.52 32.12C924.52 31.88 924.587 31.68 924.72 31.52C924.88 31.36 925.093 31.2933 925.36 31.32L929.12 31.56C929.787 31.56 930.12 31.2267 930.12 30.56V28.92C930.12 28.2533 930.307 27.76 930.68 27.44C931.08 27.0933 931.573 26.92 932.16 26.92C932.64 26.92 933.04 27.0133 933.36 27.2C933.68 27.3867 933.84 27.5733 933.84 27.76C933.84 27.9733 933.627 28.0933 933.2 28.12C933.04 28.1467 932.907 28.24 932.8 28.4C932.72 28.56 932.68 28.7333 932.68 28.92V30.56C932.68 31.2267 933.013 31.56 933.68 31.56H935.28C935.947 31.56 936.28 31.2267 936.28 30.56V28.92C936.28 28.2533 936.467 27.76 936.84 27.44C937.24 27.0933 937.733 26.92 938.32 26.92C938.8 26.92 939.2 27.0133 939.52 27.2C939.84 27.3867 940 27.5733 940 27.76C940 27.9733 939.787 28.0933 939.36 28.12C939.2 28.1467 939.067 28.24 938.96 28.4C938.88 28.56 938.84 28.7333 938.84 28.92V30.28C938.84 30.5467 938.907 30.7733 939.04 30.96C939.173 31.1467 939.333 31.24 939.52 31.24C939.6 31.24 939.747 31.1867 939.96 31.08C940.2 30.92 940.507 30.6533 940.88 30.28C941.467 29.6933 942.053 29.4 942.64 29.4C943.307 29.4 944.04 29.8267 944.84 30.68C945.133 31.0267 945.28 31.36 945.28 31.68C945.28 31.9733 945.16 32.2133 944.92 32.4C944.68 32.5867 944.333 32.68 943.88 32.68L939.84 32.72C939.173 32.72 938.84 33.0533 938.84 33.72V35.64C938.84 36.3067 939.173 36.64 939.84 36.64H940.36C940.893 36.64 941.333 36.5333 941.68 36.32C942.053 36.08 942.44 35.76 942.84 35.36C943.427 34.7733 944.013 34.48 944.6 34.48C945.267 34.48 946 34.9067 946.8 35.76C947.093 36.1067 947.24 36.44 947.24 36.76C947.24 37.0533 947.12 37.2933 946.88 37.48C946.64 37.6667 946.293 37.76 945.84 37.76L940.36 37.8L928.04 37.76C926.973 37.76 925.68 37.8133 924.16 37.92L923.2 38ZM948.48 44.84C948.613 44.84 948.72 44.88 948.8 44.96C948.88 45.04 948.92 45.1333 948.92 45.24C948.92 45.5067 948.76 45.72 948.44 45.88C947.907 46.0667 947.467 46.3333 947.12 46.68C946.773 47.0533 946.6 47.4267 946.6 47.8V47.88C946.6 48.1733 946.533 48.3867 946.4 48.52C946.267 48.68 946.107 48.7733 945.92 48.8C943.44 49.0933 941 49.24 938.6 49.24C934.52 49.24 930.813 48.76 927.48 47.8C924.173 46.84 921.72 45.1733 920.12 42.8C919.8 42.3467 919.467 42.12 919.12 42.12C918.827 42.12 918.547 42.2667 918.28 42.56C916.28 44.64 914.707 46.1467 913.56 47.08C913.24 47.4 913.08 47.6267 913.08 47.76C913.08 47.8933 913.12 48.0133 913.2 48.12C913.253 48.2267 913.28 48.32 913.28 48.4C913.28 48.5333 913.24 48.64 913.16 48.72C913.08 48.8 912.973 48.84 912.84 48.84C912.707 48.84 912.587 48.7867 912.48 48.68C912.107 48.3333 911.76 47.9867 911.44 47.64C911.147 47.2933 910.907 46.9467 910.72 46.6C910.613 46.4133 910.56 46.24 910.56 46.08C910.56 45.8667 910.653 45.6667 910.84 45.48C911.053 45.2933 911.347 45.08 911.72 44.84C913.053 44.0133 914.027 43.4 914.64 43C915.253 42.5733 916.067 41.92 917.08 41.04C917.64 40.56 917.92 40 917.92 39.36V33.08C917.92 32.6267 917.787 32.28 917.52 32.04C917.28 31.8 916.933 31.68 916.48 31.68C915.493 31.68 914.467 31.7333 913.4 31.84C913.267 31.84 912.933 31.8667 912.4 31.92C912.133 31.9467 911.92 31.88 911.76 31.72C911.627 31.56 911.56 31.36 911.56 31.12C911.56 30.88 911.627 30.68 911.76 30.52C911.92 30.36 912.133 30.2933 912.4 30.32C912.987 30.3733 913.373 30.4 913.56 30.4C914.52 30.5067 915.52 30.56 916.56 30.56C916.96 30.56 917.4 30.32 917.88 29.84C918.28 29.44 918.613 29.24 918.88 29.24C919.333 29.2133 919.787 29.32 920.24 29.56C920.72 29.8 921.12 30.0933 921.44 30.44C921.76 30.76 921.92 31.0267 921.92 31.24C921.92 31.4 921.867 31.5467 921.76 31.68C921.68 31.7867 921.573 31.8933 921.44 32C921.2 32.2133 921.013 32.4133 920.88 32.6C920.773 32.7867 920.72 33.0533 920.72 33.4V39.32C920.72 39.6933 920.747 40.0133 920.8 40.28C920.853 40.52 920.96 40.7733 921.12 41.04C921.733 42.0267 922.587 42.88 923.68 43.6C923.92 43.76 924.173 43.84 924.44 43.84C924.627 43.84 924.813 43.8 925 43.72C925.827 43.3467 926.613 42.84 927.36 42.2C928.107 41.56 928.693 40.9067 929.12 40.24C929.733 39.44 930.373 39.04 931.04 39.04C931.28 39.04 931.587 39.1333 931.96 39.32C932.28 39.48 932.533 39.68 932.72 39.92C932.907 40.16 933 40.3733 933 40.56C933 40.7467 932.893 40.84 932.68 40.84C932.493 40.84 932.347 40.8133 932.24 40.76L932.12 40.72C931.987 40.72 931.853 40.8 931.72 40.96C931.613 41.12 931.52 41.2267 931.44 41.28C930.24 42.4267 928.893 43.3867 927.4 44.16C927.027 44.32 926.84 44.52 926.84 44.76C926.84 45.0267 927.04 45.2133 927.44 45.32C929.787 45.9867 932.493 46.32 935.56 46.32C939.293 46.32 943.533 45.84 948.28 44.88L948.48 44.84ZM932.68 35.64C932.68 36.3067 933.013 36.64 933.68 36.64H935.28C935.947 36.64 936.28 36.3067 936.28 35.64V33.72C936.28 33.0533 935.947 32.72 935.28 32.72L933.68 32.68C933.013 32.68 932.68 33.0133 932.68 33.68V35.64ZM938.56 39.68C939.973 39.9733 941.16 40.32 942.12 40.72C943.08 41.12 943.92 41.76 944.64 42.64C944.907 42.9333 945.04 43.2667 945.04 43.64C945.04 44.0133 944.893 44.3333 944.6 44.6C944.307 44.8667 943.96 45 943.56 45C943.027 45 942.56 44.8 942.16 44.4C941.253 43.4133 940.467 42.64 939.8 42.08C939.16 41.52 938.333 41.0267 937.32 40.6C936.92 40.4667 936.72 40.2533 936.72 39.96C936.72 39.8 936.813 39.6667 937 39.56C937.187 39.4533 937.413 39.4267 937.68 39.48L938.56 39.68ZM963.76 18.72C962.693 18.72 961.4 18.7733 959.88 18.88L958.92 18.96C958.653 18.9867 958.44 18.92 958.28 18.76C958.147 18.5733 958.08 18.3733 958.08 18.16C958.08 17.92 958.147 17.72 958.28 17.56C958.44 17.4 958.653 17.3333 958.92 17.36L959.88 17.44C961.56 17.5467 962.853 17.6 963.76 17.6H971.6C972.053 17.6 972.4 17.48 972.64 17.24C972.88 16.9733 973 16.6267 973 16.2V14.08C973 13.4133 973.187 12.92 973.56 12.6C973.96 12.2533 974.453 12.08 975.04 12.08C975.52 12.08 975.92 12.1733 976.24 12.36C976.56 12.5467 976.72 12.7333 976.72 12.92C976.72 13.1333 976.507 13.2533 976.08 13.28C975.92 13.3067 975.787 13.4 975.68 13.56C975.6 13.72 975.56 13.8933 975.56 14.08V16.2C975.56 16.6267 975.68 16.9733 975.92 17.24C976.187 17.48 976.533 17.6 976.96 17.6H984.28C984.813 17.6 985.253 17.4933 985.6 17.28C985.973 17.04 986.36 16.72 986.76 16.32C987.347 15.7333 987.947 15.44 988.56 15.44C988.907 15.44 989.253 15.5467 989.6 15.76C990 16.0267 990.373 16.3467 990.72 16.72C991.013 17.0667 991.16 17.4 991.16 17.72C991.16 18.0133 991.04 18.2533 990.8 18.44C990.56 18.6267 990.213 18.72 989.76 18.72H963.76ZM967.44 20.12C967.333 19.96 967.28 19.84 967.28 19.76C967.28 19.5733 967.36 19.44 967.52 19.36C967.707 19.2533 967.92 19.24 968.16 19.32C969.147 19.64 970.107 20.2267 971.04 21.08C972 21.9333 972.48 22.8 972.48 23.68C972.48 24.24 972.32 24.68 972 25C971.68 25.2933 971.32 25.44 970.92 25.44C970.68 25.44 970.467 25.3867 970.28 25.28C970.093 25.1467 969.973 24.9733 969.92 24.76C969.653 23.8267 969.293 22.96 968.84 22.16C968.413 21.36 967.947 20.68 967.44 20.12ZM963.36 47.28C963.36 47.76 963.173 48.1467 962.8 48.44C962.453 48.76 962.08 48.92 961.68 48.92C961.413 48.92 961.187 48.8267 961 48.64C960.84 48.48 960.773 48.24 960.8 47.92V25.36C960.8 25.0667 961 24.92 961.4 24.92C961.933 24.92 962.413 25.1333 962.84 25.56C963.08 25.8 963.333 25.92 963.6 25.92H973.64C974.173 25.92 974.587 25.7333 974.88 25.36C975.36 24.7467 975.76 24.1333 976.08 23.52C976.4 22.9067 976.893 21.9333 977.56 20.6C977.773 20.1467 978.053 19.8133 978.4 19.6C978.747 19.3867 979.12 19.28 979.52 19.28C979.973 19.28 980.4 19.4133 980.8 19.68C981.227 19.92 981.533 20.2667 981.72 20.72C981.773 20.88 981.8 20.9867 981.8 21.04C981.8 21.2267 981.733 21.3867 981.6 21.52C981.467 21.6267 981.293 21.6267 981.08 21.52C980.893 21.4133 980.72 21.4133 980.56 21.52C980.427 21.6 980.147 21.8933 979.72 22.4C978.84 23.44 978.107 24.2133 977.52 24.72C977.253 24.96 977.12 25.2 977.12 25.44C977.12 25.76 977.4 25.92 977.96 25.92H984C984.24 25.8933 984.453 25.8267 984.64 25.72C984.853 25.5867 985.08 25.4133 985.32 25.2C985.72 24.8 986.053 24.6 986.32 24.6C986.747 24.5733 987.187 24.68 987.64 24.92C988.12 25.1333 988.52 25.4133 988.84 25.76C989.16 26.08 989.333 26.3467 989.36 26.56C989.387 26.7467 989.36 26.8933 989.28 27C989.2 27.08 989.067 27.2 988.88 27.36C988.64 27.5733 988.453 27.7733 988.32 27.96C988.213 28.12 988.16 28.3867 988.16 28.76V45.56C988.16 46.68 987.827 47.5467 987.16 48.16C986.493 48.7733 985.72 49.08 984.84 49.08C984.573 49.08 984.4 49.0133 984.32 48.88C984.24 48.7733 984.187 48.5867 984.16 48.32C984.133 47.9467 984.053 47.64 983.92 47.4C983.787 47.1867 983.48 47.0133 983 46.88L982.12 46.68C982.04 46.68 981.693 46.6133 981.08 46.48C980.6 46.3733 980.36 46.16 980.36 45.84C980.36 45.6533 980.44 45.5067 980.6 45.4C980.787 45.2933 981 45.2533 981.24 45.28C981.907 45.3867 982.52 45.4667 983.08 45.52C983.827 45.5733 984.427 45.44 984.88 45.12C985.36 44.7733 985.6 44.2667 985.6 43.6V28.44C985.6 27.9867 985.48 27.64 985.24 27.4C985 27.16 984.653 27.04 984.2 27.04H978.92C978.253 27.04 977.92 27.3733 977.92 28.04V29.2C977.92 29.8667 977.973 30.3467 978.08 30.64C978.187 30.9333 978.453 31.16 978.88 31.32C979.333 31.5067 979.76 31.6 980.16 31.6C980.32 31.6 980.56 31.5733 980.88 31.52C981.28 31.44 981.6 31.28 981.84 31.04C982.08 30.7733 982.24 30.5067 982.32 30.24C982.453 29.8133 982.507 29.3867 982.48 28.96C982.48 28.5067 982.48 28.2133 982.48 28.08C982.48 27.8933 982.547 27.7333 982.68 27.6C982.813 27.4667 982.96 27.4 983.12 27.4C983.28 27.4 983.413 27.4667 983.52 27.6C983.627 27.7333 983.68 27.9067 983.68 28.12L983.64 28.84C983.64 29.32 983.747 29.68 983.96 29.92C984.04 30.0267 984.133 30.1467 984.24 30.28C984.373 30.3867 984.467 30.5067 984.52 30.64C984.6 30.7733 984.64 30.92 984.64 31.08C984.64 32.12 984.133 32.8133 983.12 33.16C982.08 33.5333 981.08 33.72 980.12 33.72C979.373 33.72 978.507 33.5867 977.52 33.32C976.587 33.0533 975.987 32.6267 975.72 32.04C975.48 31.4267 975.36 30.5467 975.36 29.4V28.04C975.36 27.3733 975.027 27.04 974.36 27.04H974.04C973.853 27.04 973.733 27.08 973.68 27.16C973.653 27.24 973.667 27.3867 973.72 27.6C973.747 27.68 973.76 27.7733 973.76 27.88C973.76 28.0933 973.693 28.2667 973.56 28.4C973.453 28.5067 973.307 28.5067 973.12 28.4C972.96 28.3467 972.867 28.32 972.84 28.32C972.653 28.32 972.493 28.4933 972.36 28.84C971.853 30.44 970.84 31.8133 969.32 32.96C967.827 34.08 966.253 34.92 964.6 35.48C964.493 35.5333 964.347 35.56 964.16 35.56C963.84 35.56 963.68 35.44 963.68 35.2C963.68 34.9333 963.84 34.7467 964.16 34.64C965.493 34 966.653 33.0933 967.64 31.92C968.627 30.72 969.28 29.4 969.6 27.96C969.627 27.88 969.653 27.8 969.68 27.72C969.707 27.6133 969.72 27.5067 969.72 27.4C969.72 27.16 969.56 27.04 969.24 27.04H964.76C964.333 27.04 963.987 27.16 963.72 27.4C963.48 27.64 963.36 27.9867 963.36 28.44V47.28ZM968.08 34.96C968.08 34.6667 968.28 34.52 968.68 34.52C969.16 34.52 969.547 34.5867 969.84 34.72C970.16 34.8533 970.48 35.0267 970.8 35.24C971.12 35.4533 971.347 35.56 971.48 35.56H976.04C976.28 35.56 976.507 35.5067 976.72 35.4C976.96 35.2667 977.173 35.12 977.36 34.96C977.52 34.8267 977.693 34.7067 977.88 34.6C978.067 34.4667 978.253 34.4 978.44 34.4C978.867 34.4 979.293 34.5333 979.72 34.8C980.173 35.0667 980.547 35.3733 980.84 35.72C981.16 36.0667 981.32 36.3467 981.32 36.56C981.32 36.7467 981.28 36.8933 981.2 37C981.12 37.08 981 37.1867 980.84 37.32C980.627 37.48 980.453 37.6533 980.32 37.84C980.213 38.0267 980.16 38.3067 980.16 38.68V43.44C980.16 43.9467 979.96 44.3467 979.56 44.64C979.187 44.9333 978.787 45.08 978.36 45.08C977.987 45.08 977.747 44.9733 977.64 44.76C977.533 44.52 977.48 44.2133 977.48 43.84C977.48 43.36 977.36 42.9867 977.12 42.72C976.88 42.4267 976.533 42.28 976.08 42.28H972.04C971.587 42.28 971.24 42.3867 971 42.6C970.76 42.7867 970.64 43.0667 970.64 43.44C970.64 43.92 970.453 44.32 970.08 44.64C969.707 44.9333 969.307 45.08 968.88 45.08C968.347 45.08 968.08 44.7733 968.08 44.16V34.96ZM970.64 39.76C970.64 40.1867 970.76 40.5333 971 40.8C971.267 41.04 971.613 41.16 972.04 41.16L976.2 41.2C976.653 41.2 977 41.08 977.24 40.84C977.48 40.5733 977.6 40.2267 977.6 39.8V38.04C977.6 37.5867 977.48 37.24 977.24 37C977 36.76 976.653 36.64 976.2 36.64H972.04C971.613 36.64 971.267 36.76 971 37C970.76 37.24 970.64 37.5867 970.64 38.04V39.76ZM1025.96 28.12C1025.96 27.64 1025.84 27.2667 1025.6 27C1025.36 26.7067 1025.01 26.56 1024.56 26.56H1014.12C1013.67 26.56 1013.32 26.6667 1013.08 26.88C1012.84 27.0667 1012.72 27.3467 1012.72 27.72C1012.72 28.2 1012.53 28.6 1012.16 28.92C1011.79 29.2133 1011.39 29.36 1010.96 29.36C1010.43 29.36 1010.16 29.0533 1010.16 28.44V13.72C1010.16 13.4267 1010.36 13.28 1010.76 13.28C1011.24 13.28 1011.63 13.3467 1011.92 13.48C1012.24 13.6133 1012.56 13.7867 1012.88 14C1013.2 14.2133 1013.43 14.32 1013.56 14.32H1024.52C1024.76 14.32 1024.99 14.2667 1025.2 14.16C1025.44 14.0267 1025.65 13.88 1025.84 13.72C1026 13.5867 1026.17 13.4667 1026.36 13.36C1026.55 13.2267 1026.73 13.16 1026.92 13.16C1027.35 13.16 1027.77 13.2933 1028.2 13.56C1028.65 13.8267 1029.03 14.1333 1029.32 14.48C1029.64 14.8267 1029.8 15.1067 1029.8 15.32C1029.8 15.5067 1029.76 15.6533 1029.68 15.76C1029.6 15.84 1029.48 15.9467 1029.32 16.08C1029.11 16.24 1028.93 16.4133 1028.8 16.6C1028.69 16.7867 1028.64 17.0667 1028.64 17.44V27.72C1028.64 28.2267 1028.45 28.6267 1028.08 28.92C1027.71 29.2133 1027.29 29.36 1026.84 29.36C1026.47 29.36 1026.23 29.2533 1026.12 29.04C1026.01 28.8 1025.96 28.4933 1025.96 28.12ZM1012.72 24.04C1012.72 24.4667 1012.84 24.8133 1013.08 25.08C1013.35 25.32 1013.69 25.44 1014.12 25.44L1024.68 25.48C1025.13 25.48 1025.48 25.36 1025.72 25.12C1025.96 24.8533 1026.08 24.5067 1026.08 24.08V16.8C1026.08 16.3467 1025.96 16 1025.72 15.76C1025.48 15.52 1025.13 15.4 1024.68 15.4H1014.12C1013.69 15.4 1013.35 15.52 1013.08 15.76C1012.84 16 1012.72 16.3467 1012.72 16.8V24.04ZM1014.52 46.32C1014.52 45.84 1014.4 45.4667 1014.16 45.2C1013.92 44.9067 1013.57 44.76 1013.12 44.76H1007.68C1007.23 44.76 1006.88 44.8667 1006.64 45.08C1006.4 45.2667 1006.28 45.5467 1006.28 45.92C1006.28 46.4 1006.09 46.7867 1005.72 47.08C1005.35 47.4 1004.95 47.56 1004.52 47.56C1003.99 47.56 1003.72 47.2533 1003.72 46.64V31.28C1003.72 30.9867 1003.92 30.84 1004.32 30.84C1004.8 30.84 1005.19 30.9067 1005.48 31.04C1005.8 31.1733 1006.12 31.3467 1006.44 31.56C1006.76 31.7733 1006.99 31.88 1007.12 31.88H1013.08C1013.32 31.88 1013.55 31.8267 1013.76 31.72C1014 31.5867 1014.21 31.44 1014.4 31.28C1014.56 31.1467 1014.73 31.0267 1014.92 30.92C1015.11 30.7867 1015.29 30.72 1015.48 30.72C1015.91 30.72 1016.33 30.8533 1016.76 31.12C1017.21 31.3867 1017.59 31.6933 1017.88 32.04C1018.2 32.3867 1018.36 32.6667 1018.36 32.88C1018.36 33.0667 1018.32 33.2133 1018.24 33.32C1018.16 33.4 1018.04 33.5067 1017.88 33.64C1017.67 33.8 1017.49 33.9733 1017.36 34.16C1017.25 34.3467 1017.2 34.6267 1017.2 35V45.92C1017.2 46.4267 1017.01 46.8267 1016.64 47.12C1016.27 47.4133 1015.85 47.56 1015.4 47.56C1015.03 47.56 1014.79 47.44 1014.68 47.2C1014.57 46.9867 1014.52 46.6933 1014.52 46.32ZM1031.44 46.32C1031.44 45.84 1031.32 45.4667 1031.08 45.2C1030.84 44.9067 1030.49 44.76 1030.04 44.76H1024.6C1024.15 44.76 1023.8 44.8667 1023.56 45.08C1023.32 45.2667 1023.2 45.5467 1023.2 45.92C1023.2 46.4 1023.01 46.7867 1022.64 47.08C1022.27 47.4 1021.87 47.56 1021.44 47.56C1020.91 47.56 1020.64 47.2533 1020.64 46.64V31.28C1020.64 30.9867 1020.84 30.84 1021.24 30.84C1021.72 30.84 1022.11 30.9067 1022.4 31.04C1022.72 31.1733 1023.04 31.3467 1023.36 31.56C1023.68 31.7733 1023.91 31.88 1024.04 31.88H1030C1030.24 31.88 1030.47 31.8267 1030.68 31.72C1030.92 31.5867 1031.13 31.44 1031.32 31.28C1031.48 31.1467 1031.65 31.0267 1031.84 30.92C1032.03 30.7867 1032.21 30.72 1032.4 30.72C1032.83 30.72 1033.25 30.8533 1033.68 31.12C1034.13 31.3867 1034.51 31.6933 1034.8 32.04C1035.12 32.3867 1035.28 32.6667 1035.28 32.88C1035.28 33.0667 1035.24 33.2133 1035.16 33.32C1035.08 33.4 1034.96 33.5067 1034.8 33.64C1034.59 33.8 1034.41 33.9733 1034.28 34.16C1034.17 34.3467 1034.12 34.6267 1034.12 35V45.92C1034.12 46.4267 1033.93 46.8267 1033.56 47.12C1033.19 47.4133 1032.77 47.56 1032.32 47.56C1031.95 47.56 1031.71 47.44 1031.6 47.2C1031.49 46.9867 1031.44 46.6933 1031.44 46.32ZM1006.28 42.24C1006.28 42.6667 1006.4 43.0133 1006.64 43.28C1006.91 43.52 1007.25 43.64 1007.68 43.64L1013.24 43.68C1013.69 43.68 1014.04 43.56 1014.28 43.32C1014.52 43.0533 1014.64 42.7067 1014.64 42.28V34.36C1014.64 33.9067 1014.52 33.56 1014.28 33.32C1014.04 33.08 1013.69 32.96 1013.24 32.96H1007.68C1007.25 32.96 1006.91 33.08 1006.64 33.32C1006.4 33.56 1006.28 33.9067 1006.28 34.36V42.24ZM1023.2 42.24C1023.2 42.6667 1023.32 43.0133 1023.56 43.28C1023.83 43.52 1024.17 43.64 1024.6 43.64L1030.16 43.68C1030.61 43.68 1030.96 43.56 1031.2 43.32C1031.44 43.0533 1031.56 42.7067 1031.56 42.28V34.36C1031.56 33.9067 1031.44 33.56 1031.2 33.32C1030.96 33.08 1030.61 32.96 1030.16 32.96H1024.6C1024.17 32.96 1023.83 33.08 1023.56 33.32C1023.32 33.56 1023.2 33.9067 1023.2 34.36V42.24Z" fill="black"/>
<line x1="1068.33" y1="28.5" x2="1669" y2="28.5" stroke="url(#paint1_linear_304_172)" stroke-width="2"/>
<circle cx="1065" cy="28.5" r="5" fill="black"/>
<defs>
<linearGradient id="paint0_linear_304_172" x1="836.667" y1="28" x2="236" y2="28" gradientUnits="userSpaceOnUse">
<stop/>
<stop offset="1" stop-color="white" stop-opacity="0"/>
</linearGradient>
<linearGradient id="paint1_linear_304_172" x1="1068.33" y1="30" x2="1669" y2="30" gradientUnits="userSpaceOnUse">
<stop/>
<stop offset="1" stop-color="white" stop-opacity="0"/>
</linearGradient>
</defs>
</svg>
