<svg width="91" height="23" viewBox="0 0 91 23" fill="none" xmlns="http://www.w3.org/2000/svg">
<path d="M13.324 17.688C13.196 17.6027 13.132 17.5067 13.132 17.4C13.132 17.336 13.164 17.2827 13.228 17.24C13.292 17.1973 13.372 17.1867 13.468 17.208C13.5107 17.2187 13.8093 17.368 14.364 17.656C14.4493 17.6987 14.6467 17.8053 14.956 17.976C15.276 18.136 15.5427 18.264 15.756 18.36C15.9693 18.4453 16.124 18.4933 16.22 18.504C16.5187 18.536 16.7587 18.488 16.94 18.36C17.132 18.232 17.228 18.0293 17.228 17.752V10.024C17.228 9.90667 17.308 9.848 17.468 9.848C17.564 9.848 17.6547 9.86933 17.74 9.912C17.868 9.96533 17.9693 9.992 18.044 9.992C18.14 9.992 18.2253 9.96 18.3 9.896C18.8227 9.544 19.3453 9.144 19.868 8.696C20.3907 8.23733 20.8173 7.78933 21.148 7.352C21.212 7.26667 21.244 7.192 21.244 7.128C21.244 6.95733 21.1267 6.872 20.892 6.872L14.7 6.888C14.2733 6.888 13.756 6.90933 13.148 6.952L12.764 6.984C12.6573 6.99467 12.572 6.968 12.508 6.904C12.4547 6.82933 12.428 6.74933 12.428 6.664C12.428 6.568 12.4547 6.488 12.508 6.424C12.572 6.36 12.6573 6.33333 12.764 6.344L13.148 6.376C13.82 6.41867 14.3373 6.44 14.7 6.44L20.828 6.424C20.988 6.424 21.164 6.328 21.356 6.136C21.516 5.976 21.6493 5.896 21.756 5.896C21.98 5.88533 22.204 5.944 22.428 6.072C22.6627 6.18933 22.8547 6.33867 23.004 6.52C23.1533 6.70133 23.228 6.86133 23.228 7C23.228 7.128 23.196 7.21867 23.132 7.272C23.068 7.32533 22.9613 7.37333 22.812 7.416C22.6093 7.48 22.4493 7.56 22.332 7.656C21.98 7.944 21.404 8.376 20.604 8.952C19.804 9.528 19.1107 10.008 18.524 10.392C18.3427 10.4987 18.252 10.6587 18.252 10.872V18.856C18.252 19.2827 18.0973 19.5973 17.788 19.8C17.4893 20.0027 17.148 20.104 16.764 20.104C16.6467 20.104 16.572 20.0827 16.54 20.04C16.508 19.9973 16.4867 19.9333 16.476 19.848C16.4653 19.72 16.428 19.6027 16.364 19.496C16.3107 19.3893 16.1933 19.288 16.012 19.192L15.18 18.728C14.2093 18.2053 13.5907 17.8587 13.324 17.688ZM25.868 19.848C26.6787 18.792 27.084 16.4133 27.084 12.712C27.084 11.8693 27.0627 11.0107 27.02 10.136C27.02 10.008 26.9773 9.944 26.892 9.944C26.828 9.944 26.7747 9.98133 26.732 10.056L26.38 10.504C26.316 10.5893 26.2467 10.632 26.172 10.632C26.1293 10.632 26.092 10.616 26.06 10.584C26.0387 10.552 26.028 10.5093 26.028 10.456C26.028 10.4027 26.044 10.344 26.076 10.28C26.492 9.576 26.8227 8.88267 27.068 8.2C27.3133 7.51733 27.548 6.67467 27.772 5.672C27.8147 5.50133 27.9053 5.37333 28.044 5.288C28.1933 5.20267 28.364 5.16 28.556 5.16C28.6947 5.16 28.8227 5.18667 28.94 5.24C29.068 5.28267 29.1693 5.34133 29.244 5.416C29.3187 5.49067 29.356 5.56533 29.356 5.64C29.356 5.72533 29.276 5.77867 29.116 5.8C28.9347 5.81067 28.7747 5.992 28.636 6.344C28.6253 6.36533 28.62 6.39733 28.62 6.44C28.62 6.568 28.7213 6.632 28.924 6.632H29.98C30.108 6.632 30.2253 6.61067 30.332 6.568C30.4387 6.52533 30.556 6.456 30.684 6.36C30.8013 6.264 30.924 6.216 31.052 6.216C31.1587 6.216 31.26 6.248 31.356 6.312C31.7613 6.568 31.964 6.81333 31.964 7.048C31.964 7.12267 31.9427 7.18133 31.9 7.224C31.868 7.256 31.8093 7.29333 31.724 7.336C31.6173 7.4 31.5267 7.464 31.452 7.528C31.388 7.58133 31.3293 7.672 31.276 7.8C31.1053 8.216 30.8547 8.62133 30.524 9.016C30.4387 9.12267 30.396 9.21333 30.396 9.288C30.396 9.352 30.4227 9.40533 30.476 9.448C30.54 9.48 30.6253 9.496 30.732 9.496H30.972C31.068 9.48533 31.1533 9.45867 31.228 9.416C31.3133 9.36267 31.404 9.29333 31.5 9.208C31.66 9.048 31.7933 8.968 31.9 8.968C32.0707 8.95733 32.2467 9 32.428 9.096C32.62 9.18133 32.78 9.29333 32.908 9.432C33.036 9.56 33.1053 9.66667 33.116 9.752C33.1267 9.82667 33.116 9.88533 33.084 9.928C33.052 9.96 32.9987 10.008 32.924 10.072C32.828 10.1573 32.7533 10.2373 32.7 10.312C32.6573 10.376 32.636 10.4827 32.636 10.632V18.952C32.636 19.3253 32.556 19.6187 32.396 19.832C32.2467 20.056 32.0653 20.168 31.852 20.168C31.7027 20.168 31.6013 20.1467 31.548 20.104C31.5053 20.072 31.4733 20.0133 31.452 19.928C31.42 19.8 31.3613 19.6933 31.276 19.608C31.2013 19.5227 31.0413 19.4427 30.796 19.368L30.332 19.224C30.012 19.1387 29.772 19.0693 29.612 19.016C29.4733 18.9733 29.404 18.8933 29.404 18.776C29.404 18.7227 29.4253 18.6853 29.468 18.664C29.5107 18.632 29.564 18.6213 29.628 18.632C29.6707 18.6427 29.836 18.6853 30.124 18.76C30.412 18.8347 30.6787 18.872 30.924 18.872C31.3827 18.872 31.612 18.6853 31.612 18.312V16.2C31.612 16.0187 31.564 15.88 31.468 15.784C31.372 15.688 31.2333 15.64 31.052 15.64H28.444C28.092 15.64 27.9 15.816 27.868 16.168C27.7613 17.064 27.564 17.8427 27.276 18.504C26.9987 19.1547 26.5933 19.72 26.06 20.2C25.9747 20.2747 25.9 20.312 25.836 20.312C25.7613 20.312 25.724 20.2693 25.724 20.184C25.724 20.1093 25.772 19.9973 25.868 19.848ZM33.356 10.856C34.1453 10.504 34.7693 9.99733 35.228 9.336C35.6973 8.67467 35.9907 7.95467 36.108 7.176C36.1187 7.144 36.124 7.096 36.124 7.032C36.124 6.89333 36.092 6.78133 36.028 6.696C35.964 6.61067 35.868 6.568 35.74 6.568C35.4307 6.568 34.8653 6.59467 34.044 6.648C33.884 6.648 33.7613 6.65333 33.676 6.664C33.5693 6.67467 33.484 6.648 33.42 6.584C33.3667 6.50933 33.34 6.42933 33.34 6.344C33.34 6.248 33.3667 6.168 33.42 6.104C33.484 6.04 33.5693 6.01333 33.676 6.024C34.7427 6.088 36.0067 6.12 37.468 6.12H38.828C38.924 6.12 39.0147 6.09867 39.1 6.056C39.196 6.00267 39.2813 5.944 39.356 5.88C39.42 5.82667 39.4893 5.77867 39.564 5.736C39.6387 5.68267 39.7133 5.656 39.788 5.656C39.9053 5.656 40.0547 5.70933 40.236 5.816C40.428 5.92267 40.5933 6.04533 40.732 6.184C40.8707 6.32267 40.94 6.43467 40.94 6.52C40.94 6.59467 40.924 6.65333 40.892 6.696C40.86 6.728 40.812 6.77067 40.748 6.824C40.6627 6.888 40.5933 6.95733 40.54 7.032C40.4973 7.10667 40.476 7.21867 40.476 7.368C40.476 7.976 40.428 8.60533 40.332 9.256C40.2467 9.896 40.0973 10.3547 39.884 10.632C39.7667 10.792 39.6173 10.92 39.436 11.016C39.2547 11.1013 39.0787 11.144 38.908 11.144C38.8013 11.144 38.7107 11.1227 38.636 11.08C38.5613 11.0373 38.508 10.9947 38.476 10.952C38.4547 10.9093 38.4387 10.8667 38.428 10.824C38.4173 10.7707 38.4067 10.728 38.396 10.696C38.3427 10.5573 38.2467 10.4293 38.108 10.312C37.9693 10.1947 37.788 10.0773 37.564 9.96L37.228 9.752C37.132 9.688 37.084 9.61333 37.084 9.528C37.084 9.47467 37.1 9.432 37.132 9.4C37.1747 9.368 37.2227 9.352 37.276 9.352C37.3507 9.352 37.4253 9.37333 37.5 9.416C37.756 9.544 37.9693 9.64 38.14 9.704C38.3107 9.768 38.4707 9.8 38.62 9.8C38.684 9.8 38.732 9.79467 38.764 9.784C39.0093 9.73067 39.1853 9.416 39.292 8.84C39.3987 8.25333 39.452 7.67733 39.452 7.112C39.452 6.93067 39.404 6.792 39.308 6.696C39.212 6.6 39.0733 6.552 38.892 6.552H37.996C37.7507 6.552 37.5747 6.60533 37.468 6.712C37.372 6.81867 37.2707 7 37.164 7.256C36.8973 8.35467 36.4227 9.22933 35.74 9.88C35.0573 10.5307 34.2787 11 33.404 11.288L33.308 11.304C33.244 11.304 33.1907 11.288 33.148 11.256C33.116 11.224 33.1 11.1813 33.1 11.128C33.1 11.0107 33.1853 10.92 33.356 10.856ZM27.596 8.776C27.5747 8.808 27.564 8.84533 27.564 8.888C27.564 8.96267 27.6067 9.032 27.692 9.096C27.7347 9.13867 27.788 9.19733 27.852 9.272C27.9267 9.336 27.996 9.38933 28.06 9.432C28.1347 9.47467 28.22 9.496 28.316 9.496H29.148C29.3613 9.496 29.5213 9.41067 29.628 9.24C29.82 8.92 29.9693 8.6 30.076 8.28C30.1827 7.96 30.236 7.74133 30.236 7.624C30.236 7.272 30.092 7.096 29.804 7.096H28.876C28.7053 7.096 28.5773 7.13333 28.492 7.208C28.4173 7.28267 28.3267 7.44267 28.22 7.688C28.1027 7.944 27.8947 8.30667 27.596 8.776ZM28.028 11.864C28.028 12.0347 28.076 12.1733 28.172 12.28C28.2787 12.376 28.4173 12.424 28.588 12.424H28.732C28.9133 12.424 29.052 12.376 29.148 12.28C29.244 12.1733 29.292 12.0347 29.292 11.864V10.488C29.292 10.3067 29.244 10.168 29.148 10.072C29.052 9.976 28.9133 9.928 28.732 9.928H28.572C28.4013 9.928 28.2627 9.976 28.156 10.072C28.06 10.168 28.012 10.3067 28.012 10.488L28.028 11.864ZM30.316 11.864C30.316 12.0347 30.364 12.1733 30.46 12.28C30.5667 12.376 30.7053 12.424 30.876 12.424H31.052C31.2333 12.424 31.372 12.376 31.468 12.28C31.564 12.1733 31.612 12.0347 31.612 11.864V10.488C31.612 10.3067 31.564 10.168 31.468 10.072C31.372 9.976 31.2333 9.928 31.052 9.928H30.876C30.7053 9.928 30.5667 9.976 30.46 10.072C30.364 10.168 30.316 10.3067 30.316 10.488V11.864ZM33.052 15.592C33.3827 15.08 33.6227 14.5733 33.772 14.072C33.932 13.5707 34.0707 12.8987 34.188 12.056C34.22 11.8427 34.3107 11.6827 34.46 11.576C34.62 11.4587 34.8013 11.4 35.004 11.4C35.196 11.4 35.372 11.4427 35.532 11.528C35.7027 11.6133 35.836 11.736 35.932 11.896C35.9747 11.9707 35.996 12.04 35.996 12.104C35.996 12.232 35.948 12.296 35.852 12.296C35.82 12.296 35.7773 12.28 35.724 12.248C35.6493 12.1947 35.5587 12.2053 35.452 12.28C35.356 12.3547 35.2813 12.504 35.228 12.728L35.196 12.872C35.1747 12.9787 35.164 13.048 35.164 13.08C35.164 13.208 35.2067 13.3093 35.292 13.384C35.3773 13.4587 35.5 13.496 35.66 13.496H35.9C36.0813 13.496 36.22 13.448 36.316 13.352C36.412 13.2453 36.46 13.1067 36.46 12.936V11.704C36.46 11.4373 36.5347 11.24 36.684 11.112C36.844 10.9733 37.0413 10.904 37.276 10.904C37.468 10.904 37.628 10.9413 37.756 11.016C37.884 11.0907 37.948 11.1653 37.948 11.24C37.948 11.3253 37.8627 11.3733 37.692 11.384C37.628 11.3947 37.5747 11.432 37.532 11.496C37.5 11.56 37.484 11.6293 37.484 11.704V12.92C37.484 13.112 37.5373 13.2613 37.644 13.368C37.7507 13.464 37.9 13.496 38.092 13.464C38.2627 13.432 38.3907 13.3893 38.476 13.336C38.572 13.272 38.6573 13.2027 38.732 13.128C38.8067 13.0533 38.8547 13.0053 38.876 12.984C39.1107 12.7493 39.3453 12.632 39.58 12.632C39.868 12.632 40.1613 12.8027 40.46 13.144C40.5773 13.2827 40.636 13.416 40.636 13.544C40.636 13.6613 40.588 13.7573 40.492 13.832C40.396 13.9067 40.2573 13.944 40.076 13.944L38.044 13.96C37.8733 13.96 37.7347 14.008 37.628 14.104C37.532 14.2 37.484 14.3387 37.484 14.52V15.8C37.484 15.9707 37.532 16.1093 37.628 16.216C37.7347 16.312 37.8733 16.36 38.044 16.36H38.476C38.6893 16.36 38.8653 16.3173 39.004 16.232C39.1533 16.136 39.308 16.008 39.468 15.848C39.7027 15.6133 39.9373 15.496 40.172 15.496C40.46 15.496 40.7533 15.6667 41.052 16.008C41.1693 16.1467 41.228 16.28 41.228 16.408C41.228 16.5253 41.18 16.6213 41.084 16.696C40.988 16.7707 40.8493 16.808 40.668 16.808L38.044 16.824C37.8733 16.824 37.7347 16.872 37.628 16.968C37.532 17.064 37.484 17.2027 37.484 17.384V19.496C37.484 19.688 37.4093 19.8427 37.26 19.96C37.1213 20.088 36.972 20.152 36.812 20.152C36.7053 20.152 36.6147 20.1147 36.54 20.04C36.476 19.976 36.4493 19.88 36.46 19.752V17.368C36.46 17.1867 36.412 17.048 36.316 16.952C36.22 16.856 36.0813 16.808 35.9 16.808H35.308C34.8813 16.808 34.364 16.8293 33.756 16.872L33.372 16.904C33.2653 16.9147 33.18 16.888 33.116 16.824C33.0627 16.7493 33.036 16.6693 33.036 16.584C33.036 16.488 33.0627 16.408 33.116 16.344C33.18 16.28 33.2653 16.2533 33.372 16.264L33.756 16.296C34.428 16.3387 34.9453 16.36 35.308 16.36H35.9C36.0813 16.36 36.22 16.312 36.316 16.216C36.412 16.1093 36.46 15.9707 36.46 15.8V14.52C36.46 14.3387 36.412 14.2 36.316 14.104C36.22 14.008 36.0813 13.96 35.9 13.96L35.244 13.944C34.956 13.944 34.732 14.0773 34.572 14.344C34.2627 14.8667 33.868 15.368 33.388 15.848C33.3027 15.9333 33.2227 15.976 33.148 15.976C33.0413 15.976 32.988 15.9173 32.988 15.8C32.988 15.736 33.0093 15.6667 33.052 15.592ZM27.996 14.664C27.996 14.8347 28.044 14.968 28.14 15.064C28.236 15.1493 28.3693 15.192 28.54 15.192H28.732C28.9133 15.192 29.052 15.144 29.148 15.048C29.244 14.9413 29.292 14.8027 29.292 14.632V13.432C29.292 13.2507 29.244 13.112 29.148 13.016C29.052 12.92 28.9133 12.872 28.732 12.872H28.588C28.4067 12.872 28.268 12.9253 28.172 13.032C28.076 13.128 28.028 13.272 28.028 13.464C28.0067 14.0187 27.996 14.4187 27.996 14.664ZM30.316 14.632C30.316 14.8027 30.364 14.9413 30.46 15.048C30.5667 15.144 30.7053 15.192 30.876 15.192H31.052C31.2333 15.192 31.372 15.144 31.468 15.048C31.564 14.9413 31.612 14.8027 31.612 14.632V13.432C31.612 13.2507 31.564 13.112 31.468 13.016C31.372 12.92 31.2333 12.872 31.052 12.872H30.876C30.7053 12.872 30.5667 12.92 30.46 13.016C30.364 13.112 30.316 13.2507 30.316 13.432V14.632ZM42.316 19.736C43.628 19.5013 44.716 19.144 45.58 18.664C46.4547 18.1733 47.148 17.56 47.66 16.824C47.724 16.728 47.756 16.6373 47.756 16.552C47.756 16.456 47.7347 16.3653 47.692 16.28C47.5213 15.8747 47.404 15.496 47.34 15.144C47.3293 15.0907 47.308 15.048 47.276 15.016C47.2547 14.9733 47.228 14.952 47.196 14.952C47.1427 14.952 47.0893 14.9947 47.036 15.08L46.684 15.656C46.6307 15.7413 46.556 15.8747 46.46 16.056C46.364 16.2267 46.268 16.3547 46.172 16.44C46.0867 16.5253 45.9853 16.568 45.868 16.568C45.8147 16.568 45.7453 16.552 45.66 16.52C45.34 16.3813 45.18 16.2107 45.18 16.008C45.18 15.8693 45.2547 15.752 45.404 15.656C45.8093 15.4107 46.156 15.144 46.444 14.856C46.7427 14.568 46.9987 14.2107 47.212 13.784C47.2867 13.6133 47.3933 13.528 47.532 13.528C47.6173 13.528 47.6813 13.56 47.724 13.624C47.7773 13.6667 47.804 13.72 47.804 13.784C47.804 13.8373 47.7667 13.9387 47.692 14.088C47.628 14.2053 47.6013 14.3067 47.612 14.392C47.6973 14.872 47.82 15.272 47.98 15.592C48.0333 15.688 48.092 15.736 48.156 15.736C48.2413 15.736 48.3 15.688 48.332 15.592C48.588 14.92 48.7747 14.1627 48.892 13.32C48.9133 13.192 48.8867 13.0907 48.812 13.016C48.748 12.9413 48.6467 12.904 48.508 12.904H46.78C46.5987 12.904 46.46 12.9467 46.364 13.032C46.268 13.1067 46.22 13.2187 46.22 13.368C46.22 13.56 46.1453 13.72 45.996 13.848C45.8467 13.9653 45.6867 14.024 45.516 14.024C45.3027 14.024 45.196 13.9013 45.196 13.656V7.896C45.196 7.77867 45.276 7.72 45.436 7.72C45.628 7.72 45.7827 7.74667 45.9 7.8C46.028 7.85333 46.156 7.92267 46.284 8.008C46.412 8.09333 46.5027 8.136 46.556 8.136H48.652C48.9187 8.136 49.052 8.00267 49.052 7.736V7.208C49.052 7.02667 49.004 6.888 48.908 6.792C48.812 6.696 48.6787 6.648 48.508 6.648H45.276C44.8493 6.648 44.332 6.66933 43.724 6.712L43.34 6.744C43.2333 6.75467 43.148 6.728 43.084 6.664C43.0307 6.58933 43.004 6.50933 43.004 6.424C43.004 6.328 43.0307 6.248 43.084 6.184C43.148 6.12 43.2333 6.09333 43.34 6.104L43.724 6.136C44.396 6.17867 44.9133 6.2 45.276 6.2H53.596C53.8093 6.2 53.9853 6.15733 54.124 6.072C54.2733 5.976 54.428 5.848 54.588 5.688C54.8227 5.45333 55.0627 5.336 55.308 5.336C55.4467 5.336 55.5853 5.37867 55.724 5.464C55.884 5.57067 56.0333 5.69867 56.172 5.848C56.2893 5.98667 56.348 6.12 56.348 6.248C56.348 6.36533 56.3 6.46133 56.204 6.536C56.108 6.61067 55.9693 6.648 55.788 6.648L50.652 6.664C50.4813 6.664 50.3427 6.712 50.236 6.808C50.14 6.904 50.092 7.04267 50.092 7.224V7.736C50.092 8.00267 50.2253 8.136 50.492 8.136H52.204C52.3 8.136 52.3907 8.11467 52.476 8.072C52.572 8.01867 52.6573 7.96 52.732 7.896C52.796 7.84267 52.8653 7.79467 52.94 7.752C53.0147 7.69867 53.0893 7.672 53.164 7.672C53.2813 7.672 53.4307 7.72533 53.612 7.832C53.804 7.93867 53.9693 8.06133 54.108 8.2C54.2467 8.33867 54.316 8.45067 54.316 8.536C54.316 8.61067 54.3 8.66933 54.268 8.712C54.236 8.744 54.188 8.78667 54.124 8.84C54.0387 8.904 53.9693 8.97333 53.916 9.048C53.8733 9.12267 53.852 9.23467 53.852 9.384V13.368C53.852 13.5707 53.7773 13.7307 53.628 13.848C53.4787 13.9653 53.3133 14.024 53.132 14.024C52.9827 14.024 52.8867 13.9813 52.844 13.896C52.8013 13.8 52.78 13.6773 52.78 13.528C52.78 13.336 52.732 13.1867 52.636 13.08C52.54 12.9627 52.4013 12.904 52.22 12.904H50.3C50.044 12.904 49.9 13.032 49.868 13.288C49.6973 14.5467 49.3987 15.5813 48.972 16.392C48.9293 16.4773 48.908 16.5627 48.908 16.648C48.908 16.7547 48.9613 16.856 49.068 16.952C50.38 18.008 52.524 18.536 55.5 18.536C55.788 18.536 56.252 18.5253 56.892 18.504H56.94C57.0147 18.504 57.0733 18.52 57.116 18.552C57.1587 18.5733 57.18 18.6 57.18 18.632C57.18 18.6853 57.1533 18.7333 57.1 18.776C57.0467 18.8187 56.9827 18.8453 56.908 18.856C56.7267 18.8773 56.5667 18.9467 56.428 19.064C56.2893 19.192 56.2093 19.336 56.188 19.496C56.1453 19.72 56.0707 19.832 55.964 19.832H55.468C54.06 19.832 52.7533 19.656 51.548 19.304C50.3533 18.952 49.3827 18.4027 48.636 17.656C48.54 17.56 48.444 17.512 48.348 17.512C48.2627 17.512 48.172 17.5653 48.076 17.672C47.5 18.3013 46.748 18.824 45.82 19.24C44.892 19.656 43.7347 19.9813 42.348 20.216C42.22 20.2373 42.1133 20.2267 42.028 20.184C41.9533 20.1413 41.916 20.088 41.916 20.024C41.916 19.96 41.948 19.9013 42.012 19.848C42.076 19.7947 42.1773 19.7573 42.316 19.736ZM46.22 9.688C46.22 9.86933 46.268 10.008 46.364 10.104C46.46 10.2 46.5933 10.248 46.764 10.248H48.636C48.9027 10.248 49.036 10.1147 49.036 9.848L49.052 8.968C49.052 8.70133 48.9187 8.568 48.652 8.568H46.78C46.6093 8.568 46.4707 8.616 46.364 8.712C46.268 8.808 46.22 8.94667 46.22 9.128V9.688ZM50.06 9.864C50.06 10.1307 50.1933 10.264 50.46 10.264H52.284C52.4547 10.264 52.588 10.216 52.684 10.12C52.78 10.024 52.828 9.88533 52.828 9.704V9.128C52.828 8.94667 52.78 8.808 52.684 8.712C52.588 8.616 52.4493 8.568 52.268 8.568H50.476C50.2093 8.568 50.076 8.70133 50.076 8.968L50.06 9.864ZM49.996 12.104C49.996 12.3493 50.124 12.472 50.38 12.472H52.268C52.4493 12.472 52.588 12.424 52.684 12.328C52.78 12.2213 52.828 12.0827 52.828 11.912V11.336C52.828 11.1547 52.7853 11.016 52.7 10.92C52.6147 10.824 52.4973 10.776 52.348 10.776H50.444C50.188 10.776 50.0493 10.9253 50.028 11.224L50.012 11.672C50.0013 11.768 49.996 11.912 49.996 12.104ZM46.22 11.896C46.22 12.0667 46.268 12.2053 46.364 12.312C46.4707 12.408 46.6093 12.456 46.78 12.456H48.604C48.8707 12.456 49.004 12.328 49.004 12.072L49.036 11.192C49.036 10.9253 48.9027 10.792 48.636 10.792H46.764C46.5933 10.792 46.46 10.84 46.364 10.936C46.268 11.032 46.22 11.1707 46.22 11.352V11.896ZM59.9 15.912C60.7213 15.4747 61.6227 14.8507 62.604 14.04C63.596 13.2187 64.5347 12.2693 65.42 11.192C66.316 10.104 67.0307 8.968 67.564 7.784C67.6067 7.69867 67.628 7.608 67.628 7.512C67.628 7.39467 67.58 7.304 67.484 7.24C67.3987 7.16533 67.2813 7.128 67.132 7.128H65.788C65.6387 7.128 65.5107 7.16 65.404 7.224C65.2973 7.27733 65.2013 7.368 65.116 7.496L64.924 7.784C64.604 8.232 64.38 8.54133 64.252 8.712C64.156 8.84 64.108 8.952 64.108 9.048C64.108 9.21867 64.2467 9.33067 64.524 9.384C64.78 9.416 65.02 9.48 65.244 9.576C65.596 9.736 65.772 9.91733 65.772 10.12C65.772 10.2693 65.692 10.3973 65.532 10.504C65.372 10.6107 65.196 10.664 65.004 10.664C64.8547 10.664 64.7427 10.6373 64.668 10.584L64.38 10.408C64.22 10.2907 64.0333 10.168 63.82 10.04C63.7027 9.976 63.596 9.944 63.5 9.944C63.34 9.944 63.1853 10.024 63.036 10.184C62.0653 11.2827 61.1373 12.1467 60.252 12.776C60.1667 12.8293 60.0973 12.856 60.044 12.856C59.9907 12.856 59.948 12.84 59.916 12.808C59.884 12.776 59.868 12.7387 59.868 12.696C59.868 12.6 59.932 12.4987 60.06 12.392C60.9027 11.6773 61.7347 10.76 62.556 9.64C63.388 8.52 64.1347 7.28267 64.796 5.928C64.924 5.66133 65.0787 5.464 65.26 5.336C65.452 5.208 65.6493 5.144 65.852 5.144C66.076 5.144 66.2947 5.224 66.508 5.384C66.5827 5.448 66.62 5.512 66.62 5.576C66.62 5.62933 66.5987 5.672 66.556 5.704C66.524 5.72533 66.4707 5.73067 66.396 5.72H66.38C66.2733 5.72 66.1613 5.81067 66.044 5.992L65.916 6.216C65.8627 6.30133 65.836 6.38133 65.836 6.456C65.836 6.53067 65.868 6.58933 65.932 6.632C65.996 6.67467 66.0813 6.696 66.188 6.696H67.356C67.516 6.68533 67.692 6.584 67.884 6.392C67.948 6.328 68.0173 6.27467 68.092 6.232C68.1667 6.17867 68.2413 6.152 68.316 6.152C68.4867 6.152 68.6627 6.2 68.844 6.296C69.036 6.392 69.1907 6.504 69.308 6.632C69.436 6.76 69.5 6.86667 69.5 6.952C69.5 7.02667 69.4733 7.08533 69.42 7.128C69.3773 7.16 69.2973 7.20267 69.18 7.256C69.0307 7.33067 68.9133 7.4 68.828 7.464C68.7427 7.528 68.6787 7.624 68.636 7.752C68.0707 9.11733 67.308 10.376 66.348 11.528C65.388 12.6693 64.348 13.6453 63.228 14.456C62.1187 15.2667 61.0253 15.896 59.948 16.344C59.884 16.3653 59.8413 16.376 59.82 16.376C59.7133 16.376 59.66 16.3227 59.66 16.216C59.66 16.1627 59.6813 16.1093 59.724 16.056C59.7667 16.0027 59.8253 15.9547 59.9 15.912ZM60.14 20.44C60.076 20.44 60.0227 20.4187 59.98 20.376C59.948 20.344 59.932 20.3013 59.932 20.248C59.932 20.1947 59.9533 20.1413 59.996 20.088C60.0493 20.0453 60.1187 20.0187 60.204 20.008C61.356 19.8373 62.5827 19.4587 63.884 18.872C65.1853 18.2853 66.4333 17.464 67.628 16.408C68.8227 15.3413 69.7827 14.0507 70.508 12.536C70.5507 12.4507 70.572 12.36 70.572 12.264C70.572 12.1467 70.524 12.0507 70.428 11.976C70.3427 11.9013 70.2253 11.864 70.076 11.864H68.62C68.3213 11.864 68.092 11.976 67.932 12.2C67.6653 12.5627 67.3293 12.9733 66.924 13.432C66.8067 13.5707 66.748 13.688 66.748 13.784C66.748 13.9547 66.892 14.0667 67.18 14.12C67.532 14.1947 67.82 14.2747 68.044 14.36C68.396 14.52 68.572 14.7013 68.572 14.904C68.572 15.0533 68.492 15.1813 68.332 15.288C68.172 15.3947 67.996 15.448 67.804 15.448C67.6547 15.448 67.5427 15.4213 67.468 15.368C67.308 15.2613 66.9293 15.0587 66.332 14.76C66.204 14.7067 66.0973 14.68 66.012 14.68C65.852 14.68 65.7027 14.7493 65.564 14.888C64.284 16.1467 63.0733 17.0747 61.932 17.672C61.868 17.704 61.804 17.72 61.74 17.72C61.6013 17.72 61.532 17.6667 61.532 17.56C61.532 17.4747 61.6013 17.384 61.74 17.288C62.796 16.584 63.8573 15.6507 64.924 14.488C65.9907 13.3147 66.9347 12.04 67.756 10.664C68.076 10.152 68.4387 9.896 68.844 9.896C69.0573 9.896 69.2653 9.97067 69.468 10.12C69.5427 10.184 69.58 10.248 69.58 10.312C69.58 10.3653 69.5587 10.408 69.516 10.44C69.484 10.4613 69.4307 10.4667 69.356 10.456H69.34C69.2333 10.456 69.1213 10.5467 69.004 10.728L68.844 10.952C68.78 11.0267 68.748 11.1067 68.748 11.192C68.748 11.2667 68.78 11.3253 68.844 11.368C68.908 11.4107 68.9933 11.432 69.1 11.432H70.316C70.476 11.4213 70.652 11.32 70.844 11.128C70.908 11.064 70.9773 11.0107 71.052 10.968C71.1267 10.9147 71.2013 10.888 71.276 10.888C71.4467 10.888 71.6227 10.936 71.804 11.032C71.996 11.128 72.1507 11.24 72.268 11.368C72.396 11.496 72.46 11.6027 72.46 11.688C72.46 11.7627 72.4333 11.8213 72.38 11.864C72.3267 11.896 72.2413 11.9387 72.124 11.992C71.9747 12.0667 71.8573 12.136 71.772 12.2C71.6867 12.2533 71.6173 12.344 71.564 12.472C70.4547 14.936 68.876 16.808 66.828 18.088C64.78 19.3573 62.5667 20.1413 60.188 20.44H60.14Z" fill="black"/>
<path d="M0 22H89.5L77 1" stroke="black"/>
</svg>
