<svg width="36" height="36" viewBox="0 0 36 36" fill="none" xmlns="http://www.w3.org/2000/svg">
<path fill-rule="evenodd" clip-rule="evenodd" d="M12.6271 4.875C13.0471 3.99 13.9516 3.375 15.0001 3.375H21.0001C22.0471 3.375 22.9516 3.99 23.3731 4.875C24.3976 4.884 25.1971 4.9305 25.9111 5.2095C26.7635 5.54291 27.5048 6.10952 28.0501 6.8445C28.6006 7.584 28.8586 8.535 29.2141 9.8415L29.2696 10.0455L30.1546 13.296C30.7447 13.5937 31.262 14.0178 31.6696 14.538C32.6026 15.7335 32.7676 17.157 32.6026 18.789C32.4406 20.373 31.9426 22.368 31.3186 24.8655L31.2781 25.023C30.8836 26.6025 30.5626 27.885 30.1831 28.8855C29.7841 29.9295 29.2801 30.7845 28.4476 31.434C27.6166 32.0835 26.6641 32.364 25.5556 32.499C24.4921 32.625 23.1706 32.625 21.5431 32.625H14.4571C12.8296 32.625 11.5066 32.625 10.4446 32.4975C9.33465 32.3655 8.38365 32.0835 7.55115 31.4325C6.72015 30.7845 6.21615 29.9295 5.81715 28.8855C5.43615 27.885 5.11665 26.6025 4.72215 25.023L4.68165 24.8655C4.05765 22.368 3.55815 20.373 3.39765 18.7905C3.23265 17.1555 3.39765 15.7335 4.32915 14.538C4.75365 13.995 5.26215 13.593 5.84415 13.296L6.72915 10.0455L6.78615 9.8415C7.14165 8.535 7.39965 7.584 7.95015 6.843C8.49574 6.10857 9.23699 5.5425 10.0891 5.2095C10.8031 4.9305 11.6011 4.8825 12.6271 4.875ZM12.6286 7.1295C11.6356 7.14 11.2381 7.1775 10.9081 7.3065C10.4491 7.48602 10.0499 7.79116 9.75615 8.187C9.49215 8.5425 9.33615 9.039 8.90115 10.6395L8.37015 12.5835C9.92715 12.375 11.9371 12.375 14.4331 12.375H21.5656C24.0631 12.375 26.0731 12.375 27.6286 12.5835L27.0991 10.638C26.6626 9.0375 26.5081 8.541 26.2441 8.1855C25.9504 7.78966 25.5512 7.48452 25.0921 7.305C24.7621 7.176 24.3631 7.1385 23.3701 7.128C23.157 7.57599 22.8212 7.95439 22.4017 8.21934C21.9822 8.48429 21.4963 8.62495 21.0001 8.625H15.0001C14.504 8.62495 14.0181 8.48429 13.5986 8.21934C13.1791 7.95439 12.8433 7.57599 12.6301 7.128M15.0001 5.625C14.9007 5.625 14.8053 5.66451 14.735 5.73484C14.6647 5.80516 14.6251 5.90054 14.6251 6C14.6251 6.09946 14.6647 6.19484 14.735 6.26517C14.8053 6.33549 14.9007 6.375 15.0001 6.375H21.0001C21.0996 6.375 21.195 6.33549 21.2653 6.26517C21.3356 6.19484 21.3751 6.09946 21.3751 6C21.3751 5.90054 21.3356 5.80516 21.2653 5.73484C21.195 5.66451 21.0996 5.625 21.0001 5.625H15.0001ZM8.55015 14.829C7.18515 15.027 6.52365 15.387 6.10515 15.924C5.68515 16.4595 5.49765 17.187 5.63715 18.561C5.77965 19.965 6.23715 21.801 6.88815 24.411C7.30515 26.073 7.59315 27.225 7.92315 28.086C8.23815 28.917 8.54865 29.3565 8.93865 29.661C9.32715 29.964 9.82815 30.1575 10.7131 30.264C11.6281 30.3735 12.8131 30.375 14.5291 30.375H21.4741C23.1886 30.375 24.3766 30.3735 25.2901 30.264C26.1751 30.159 26.6761 29.964 27.0646 29.661C27.4546 29.3565 27.7636 28.917 28.0816 28.086C28.4086 27.225 28.6981 26.073 29.1136 24.411C29.7661 21.801 30.2236 19.965 30.3646 18.561C30.5056 17.187 30.3166 16.458 29.8981 15.9225C29.4796 15.387 28.8181 15.027 27.4516 14.829C26.0566 14.628 24.1636 14.625 21.4741 14.625H14.5291C11.8396 14.625 9.94665 14.628 8.55165 14.829" fill="#1E1E1E"/>
</svg>
