<svg width="30" height="30" viewBox="0 0 30 30" fill="none" xmlns="http://www.w3.org/2000/svg">
<path d="M24 19.5H7.5L5.25 6H28.5L24 19.5Z" fill="black"/>
<path d="M1.5 1.5H4.5L5.25 6M5.25 6L7.5 19.5H24L28.5 6H5.25Z" stroke="black" stroke-width="2" stroke-linecap="round" stroke-linejoin="round"/>
<path d="M9 28.5C9.82843 28.5 10.5 27.8284 10.5 27C10.5 26.1716 9.82843 25.5 9 25.5C8.17157 25.5 7.5 26.1716 7.5 27C7.5 27.8284 8.17157 28.5 9 28.5Z" stroke="black" stroke-width="2" stroke-linecap="round" stroke-linejoin="round"/>
<path d="M22.5 28.5C23.3284 28.5 24 27.8284 24 27C24 26.1716 23.3284 25.5 22.5 25.5C21.6716 25.5 21 26.1716 21 27C21 27.8284 21.6716 28.5 22.5 28.5Z" stroke="black" stroke-width="2" stroke-linecap="round" stroke-linejoin="round"/>
</svg>
