<svg width="27" height="27" viewBox="0 0 27 27" fill="none" xmlns="http://www.w3.org/2000/svg">
<mask id="mask0_626_320" style="mask-type:luminance" maskUnits="userSpaceOnUse" x="2" y="2" width="23" height="23">
<path d="M2.25 2.25H24.75V24.75H2.25V2.25Z" fill="white"/>
</mask>
<g mask="url(#mask0_626_320)">
<path d="M10.4963 13.7475V14.3325C10.4963 14.4337 10.4401 14.4787 10.3388 14.4787H8.01008C7.87508 14.4787 7.83008 14.4787 7.83008 14.2987V10.6875C7.83008 10.5412 7.83008 10.4962 8.02133 10.4962H8.53883C8.67383 10.4962 8.71883 10.5525 8.71883 10.6762V13.5562H10.3726C10.4053 13.5598 10.4359 13.5743 10.4594 13.5973C10.4828 13.6204 10.4978 13.6507 10.502 13.6834C10.5064 13.7048 10.5044 13.7271 10.4963 13.7475ZM11.9363 10.6762V14.2987C11.9363 14.4337 11.9363 14.4787 11.7451 14.4787C11.5651 14.49 11.3851 14.49 11.2051 14.4787C11.1806 14.4826 11.1555 14.4806 11.1319 14.4729C11.1083 14.4652 11.0869 14.4521 11.0693 14.4345C11.0518 14.417 11.0386 14.3955 11.0309 14.3719C11.0232 14.3483 11.0212 14.3233 11.0251 14.2987V10.6762C11.0191 10.6467 11.0212 10.6161 11.0311 10.5876C11.0409 10.5591 11.0582 10.5338 11.0812 10.5143C11.1042 10.4948 11.1319 10.4818 11.1616 10.4766C11.1913 10.4715 11.2219 10.4743 11.2501 10.485H11.7788C11.8021 10.4863 11.8248 10.4925 11.8455 10.503C11.8663 10.5135 11.8846 10.5282 11.8994 10.5462C11.9142 10.5641 11.9251 10.585 11.9315 10.6074C11.9378 10.6297 11.9395 10.6532 11.9363 10.6762ZM16.0201 10.665V14.2987C16.0201 14.4225 16.0201 14.4675 15.8401 14.4675H15.2663C15.24 14.4684 15.2138 14.4628 15.1902 14.451C15.1666 14.4392 15.1464 14.4216 15.1313 14.4L14.2876 13.275L13.5001 12.2062V12.1275V14.31C13.5001 14.4675 13.5001 14.5012 13.3088 14.5012H12.7913C12.7543 14.5071 12.7164 14.4995 12.6844 14.48C12.6525 14.4604 12.6285 14.43 12.617 14.3944C12.6093 14.3708 12.6074 14.3457 12.6113 14.3212V10.6875C12.6096 10.6649 12.6129 10.6422 12.6207 10.621C12.6286 10.5997 12.641 10.5805 12.657 10.5644C12.673 10.5484 12.6923 10.536 12.7136 10.5282C12.7348 10.5203 12.7575 10.5171 12.7801 10.5187H13.3988C13.4196 10.5221 13.4393 10.5298 13.4568 10.5415C13.4743 10.5531 13.489 10.5684 13.5001 10.5862L14.7376 12.375L15.0638 12.8137V12.87V10.6875C15.0638 10.5412 15.1201 10.485 15.2663 10.485H15.7726C15.9526 10.485 16.0201 10.5412 16.0201 10.665ZM19.2938 10.6875V11.25C19.2938 11.3737 19.2938 11.43 19.1251 11.43H17.6063C17.5276 11.43 17.5276 11.43 17.5276 11.5087V11.9812C17.5276 12.0712 17.5276 12.0712 17.6063 12.0712H19.1251C19.2713 12.0712 19.3163 12.1275 19.3163 12.2737V12.7912C19.3202 12.8158 19.3182 12.8408 19.3105 12.8644C19.3028 12.888 19.2896 12.9095 19.2721 12.927C19.2546 12.9446 19.2331 12.9577 19.2095 12.9654C19.1859 12.9731 19.1608 12.9751 19.1363 12.9712H17.6063C17.5276 12.9712 17.5276 12.9712 17.5276 13.0612V13.5C17.5276 13.59 17.5276 13.59 17.6063 13.59H19.1251C19.2601 13.59 19.3051 13.59 19.3051 13.7812V14.2987C19.3051 14.4337 19.3051 14.4787 19.1251 14.4787H16.8188C16.6163 14.4787 16.6276 14.4787 16.6276 14.2987V10.6875C16.6276 10.5525 16.6838 10.4962 16.8188 10.4962H19.0688C19.2488 10.4962 19.2938 10.5525 19.2938 10.6875Z" fill="#1E1E1E"/>
<path d="M20.25 2.25H6.75C5.55653 2.25 4.41193 2.72411 3.56802 3.56802C2.72411 4.41193 2.25 5.55653 2.25 6.75V20.25C2.25 21.4435 2.72411 22.5881 3.56802 23.432C4.41193 24.2759 5.55653 24.75 6.75 24.75H20.25C21.4435 24.75 22.5881 24.2759 23.432 23.432C24.2759 22.5881 24.75 21.4435 24.75 20.25V6.75C24.75 5.55653 24.2759 4.41193 23.432 3.56802C22.5881 2.72411 21.4435 2.25 20.25 2.25ZM21.4875 14.625C21.2015 15.2694 20.8225 15.8683 20.3625 16.4025C19.6268 17.237 18.8047 17.9912 17.91 18.6525C16.8743 19.4662 15.7942 20.2162 14.67 20.9025C14.3212 21.1162 13.9613 21.3075 13.6013 21.4875C13.4442 21.58 13.266 21.6304 13.0838 21.6337C13.0432 21.6414 13.0014 21.6392 12.9619 21.6274C12.9223 21.6156 12.8862 21.5945 12.8564 21.5658C12.8267 21.5372 12.8043 21.5019 12.791 21.4628C12.7777 21.4238 12.7739 21.3821 12.78 21.3412C12.7695 21.1877 12.7695 21.0336 12.78 20.88C12.8546 20.5322 12.896 20.1781 12.9038 19.8225C12.9067 19.7165 12.8785 19.612 12.8225 19.522C12.7664 19.4319 12.6852 19.3604 12.5887 19.3163C12.4012 19.2241 12.1998 19.1633 11.9925 19.1363C10.9099 18.98 9.8607 18.6455 8.8875 18.1462C7.97055 17.6777 7.15599 17.0314 6.49125 16.245C5.81118 15.4522 5.34288 14.5001 5.13 13.4775C5.13 13.2412 5.0625 13.005 5.04 12.7575C5.0175 12.51 5.04 12.2963 5.04 12.06C5.07378 11.438 5.21064 10.8259 5.445 10.2487C5.75008 9.47817 6.19221 8.76923 6.75 8.15625C7.54809 7.32103 8.50919 6.6586 9.57375 6.21C10.2446 5.94128 10.9424 5.74516 11.655 5.625L12.51 5.5125H14.4113C15.7003 5.61852 16.9551 5.98193 18.1013 6.58125C18.9 6.99187 19.6267 7.53075 20.25 8.17875C20.9039 8.86156 21.3927 9.68513 21.6788 10.5862C21.8025 10.9496 21.8824 11.3287 21.915 11.7112V12.4425C21.9288 13.1921 21.7831 13.936 21.4875 14.625Z" fill="#1E1E1E"/>
<path d="M16.0201 10.665V14.2987C16.0201 14.4225 16.0201 14.4675 15.8401 14.4675H15.2663C15.24 14.4684 15.2138 14.4628 15.1902 14.451C15.1666 14.4392 15.1464 14.4216 15.1313 14.4L14.2876 13.275L13.5001 12.2062V12.1275V14.31C13.5001 14.4675 13.5001 14.5012 13.3088 14.5012H12.7913C12.7543 14.5071 12.7164 14.4995 12.6844 14.48C12.6525 14.4604 12.6285 14.43 12.617 14.3944C12.6093 14.3708 12.6074 14.3457 12.6113 14.3212V10.6875C12.6096 10.6649 12.6129 10.6422 12.6207 10.621C12.6286 10.5997 12.641 10.5805 12.657 10.5644C12.673 10.5484 12.6923 10.536 12.7136 10.5282C12.7348 10.5203 12.7575 10.5171 12.7801 10.5187H13.3988C13.4196 10.5221 13.4393 10.5298 13.4568 10.5415C13.4743 10.5531 13.489 10.5684 13.5001 10.5862L14.7376 12.375L15.0638 12.8137V12.87V10.6875C15.0638 10.5412 15.1201 10.485 15.2663 10.485H15.7726C15.9526 10.485 16.0201 10.5412 16.0201 10.665ZM17.5276 11.475V11.9475C17.5276 12.0375 17.5276 12.0375 17.6063 12.0375H19.1251C19.2713 12.0375 19.3163 12.0937 19.3163 12.24V12.7575C19.3202 12.782 19.3182 12.8071 19.3105 12.8307C19.3028 12.8543 19.2896 12.8757 19.2721 12.8933C19.2546 12.9108 19.2331 12.924 19.2095 12.9316C19.1859 12.9393 19.1608 12.9413 19.1363 12.9375H17.6063C17.5276 12.9375 17.5276 12.9375 17.5276 13.0275V13.5C17.5276 13.59 17.5276 13.59 17.6063 13.59H19.1251C19.2601 13.59 19.3051 13.59 19.3051 13.7812V14.2987C19.3051 14.4337 19.3051 14.4787 19.1251 14.4787H16.8188C16.6163 14.4787 16.6276 14.4787 16.6276 14.2987V10.6875C16.6276 10.5525 16.6838 10.4962 16.8188 10.4962H19.0688C19.2038 10.4962 19.2488 10.5525 19.2488 10.6875V11.25C19.2488 11.3737 19.2488 11.43 19.0801 11.43H17.6063C17.5276 11.3962 17.5276 11.3962 17.5276 11.475ZM10.4963 13.7475V14.3325C10.4963 14.4337 10.4401 14.4787 10.3388 14.4787H8.01008C7.87508 14.4787 7.83008 14.4787 7.83008 14.2987V10.6875C7.83008 10.5412 7.83008 10.4962 8.02133 10.4962H8.53883C8.67383 10.4962 8.71883 10.5525 8.71883 10.6762V13.5562H10.3726C10.4053 13.5598 10.4359 13.5743 10.4594 13.5973C10.4828 13.6204 10.4978 13.6507 10.502 13.6834C10.5064 13.7048 10.5044 13.7271 10.4963 13.7475ZM11.9363 10.6762V14.2987C11.9363 14.4337 11.9363 14.4787 11.7451 14.4787C11.5651 14.49 11.3851 14.49 11.2051 14.4787C11.1806 14.4826 11.1555 14.4806 11.1319 14.4729C11.1083 14.4652 11.0869 14.4521 11.0693 14.4345C11.0518 14.417 11.0386 14.3955 11.0309 14.3719C11.0232 14.3483 11.0212 14.3233 11.0251 14.2987V10.6762C11.0191 10.6467 11.0212 10.6161 11.0311 10.5876C11.0409 10.5591 11.0582 10.5338 11.0812 10.5143C11.1042 10.4948 11.1319 10.4818 11.1616 10.4766C11.1913 10.4715 11.2219 10.4743 11.2501 10.485H11.7788C11.8021 10.4863 11.8248 10.4925 11.8455 10.503C11.8663 10.5135 11.8846 10.5282 11.8994 10.5462C11.9142 10.5641 11.9251 10.585 11.9315 10.6074C11.9378 10.6297 11.9395 10.6532 11.9363 10.6762Z" fill="#1E1E1E"/>
</g>
</svg>
