<svg width="20" height="20" viewBox="0 0 20 20" fill="none" xmlns="http://www.w3.org/2000/svg">
<path d="M12.1484 7.68751V10.8633C12.1484 10.9453 12.0859 11.0078 12.0039 11.0078H11.4961C11.4453 11.0078 11.4024 10.9805 11.3789 10.9492L9.92188 8.98438V10.8672C9.92188 10.9492 9.85938 11.0117 9.77735 11.0117H9.26954C9.18751 11.0117 9.12501 10.9492 9.12501 10.8672V7.69141C9.12501 7.60938 9.18751 7.54688 9.26954 7.54688H9.77344C9.81641 7.54688 9.86719 7.57032 9.89063 7.60938L11.3477 9.57423V7.69141C11.3477 7.60938 11.4102 7.54688 11.4922 7.54688H12C12.082 7.54298 12.1484 7.60938 12.1484 7.6836V7.68751ZM8.48829 7.54298H7.98048C7.89844 7.54298 7.83595 7.60548 7.83595 7.68751V10.8633C7.83595 10.9453 7.89844 11.0078 7.98048 11.0078H8.48829C8.57032 11.0078 8.63282 10.9453 8.63282 10.8633V7.68751C8.63282 7.61329 8.57032 7.54298 8.48829 7.54298ZM7.26173 10.2031H5.8711V7.68751C5.8711 7.60548 5.8086 7.54298 5.72657 7.54298H5.21876C5.13673 7.54298 5.07423 7.60548 5.07423 7.68751V10.8633C5.07423 10.9024 5.08594 10.9336 5.11329 10.9609C5.14063 10.9844 5.17188 11 5.21094 11H7.25001C7.33204 11 7.39454 10.9375 7.39454 10.8555V10.3477C7.39454 10.2734 7.33204 10.2031 7.25782 10.2031H7.26173ZM14.8281 7.54298H12.7852C12.7109 7.54298 12.6406 7.60548 12.6406 7.68751V10.8633C12.6406 10.9375 12.7031 11.0078 12.7852 11.0078H14.8242C14.9063 11.0078 14.9688 10.9453 14.9688 10.8633V10.3516C14.9688 10.2695 14.9063 10.207 14.8242 10.207H13.4375V9.67579H14.8242C14.9063 9.67579 14.9688 9.61329 14.9688 9.53126V9.01954C14.9688 8.93751 14.9063 8.87501 14.8242 8.87501H13.4375V8.33985H14.8242C14.9063 8.33985 14.9688 8.27735 14.9688 8.19532V7.68751C14.9649 7.61329 14.9024 7.54298 14.8242 7.54298H14.8281ZM20 3.64844V16.3828C19.9961 18.3828 18.3555 20.0039 16.3516 20H3.61719C1.61719 19.9961 -0.00389921 18.3516 7.04468e-06 16.3516V3.61719C0.00391329 1.61719 1.64844 -0.00389921 3.64844 7.04468e-06H16.3828C18.3828 0.00391329 20.0039 1.64454 20 3.64844ZM17.25 9.1211C17.25 5.86329 13.9805 3.21094 9.96876 3.21094C5.95704 3.21094 2.68751 5.86329 2.68751 9.1211C2.68751 12.0391 5.27735 14.4883 8.77735 14.9531C9.62891 15.1367 9.53126 15.4492 9.33985 16.5977C9.3086 16.7813 9.19141 17.3164 9.96876 16.9922C10.7461 16.668 14.1602 14.5234 15.6914 12.7656C16.7461 11.6055 17.25 10.4297 17.25 9.12891V9.1211Z" fill="black"/>
</svg>
