<svg width="80" height="95" viewBox="0 0 80 95" fill="none" xmlns="http://www.w3.org/2000/svg">
<path d="M45.5806 0C49.2685 5.17765e-06 52.2581 2.98963 52.2581 6.67751C52.2581 8.24349 51.719 9.68351 50.8164 10.8222H50.8766L40.0544 29.8187L28.5414 10.8222H28.6016C27.699 9.68351 27.1599 8.24349 27.1599 6.67751C27.1599 2.98963 30.1495 6.66501e-06 33.8374 0C36.3728 0 38.5782 1.41309 39.709 3.49467C40.8398 1.41309 43.0452 0 45.5806 0ZM40.1695 11.0525C39.4701 11.0525 38.9031 11.6711 38.9031 12.4341C38.9031 12.9349 39.1474 13.3735 39.5131 13.6158L40.0544 29.8187L40.701 13.6883C41.1349 13.4691 41.436 12.99 41.436 12.4341C41.436 11.6711 40.8689 11.0525 40.1695 11.0525Z" fill="black"/>
<path d="M12.359 16.0216C13.4987 12.5142 17.2658 10.5947 20.7732 11.7343C22.2625 12.2183 23.4654 13.176 24.2695 14.3863L24.2881 14.3291L39.0106 30.4918L17.3862 35.5712L17.4048 35.5138C16.0428 36.0204 14.5067 36.0882 13.0174 35.6043C9.51001 34.4647 7.59056 30.6975 8.73017 27.1901C9.51367 24.7788 11.5391 23.118 13.8682 22.6858C12.238 20.9671 11.5755 18.433 12.359 16.0216ZM21.1984 24.5833C20.9823 25.2485 21.3954 25.9789 22.121 26.2147C22.5974 26.3694 23.0899 26.2726 23.4334 25.9997L39.0106 30.4918L23.8694 24.8923C23.7951 24.4119 23.4325 23.9775 22.9037 23.8058C22.1781 23.57 21.4145 23.9181 21.1984 24.5833Z" fill="black"/>
<path d="M71.4926 27.6084C72.5092 31.1534 70.4595 34.8513 66.9144 35.8678C65.4093 36.2995 63.8762 36.1782 62.533 35.6243L62.5496 35.6822L41.306 30.5154L56.3931 14.2122L56.4097 14.2702C57.2556 13.0886 58.4912 12.1734 59.9965 11.7417C63.5415 10.7252 67.2392 12.775 68.2558 16.3201C68.955 18.7573 68.2044 21.2667 66.5149 22.9275C68.8277 23.4407 70.794 25.1712 71.4926 27.6084ZM59.3769 25.4534C59.1842 24.7811 58.4333 24.4065 57.6998 24.6169C57.2184 24.7549 56.8641 25.1106 56.7321 25.5289L41.306 30.5154L56.9897 26.6908C57.32 27.0475 57.8636 27.2048 58.398 27.0516C59.1314 26.8413 59.5697 26.1257 59.3769 25.4534Z" fill="black"/>
<path d="M17.5952 52.6866C14.6116 50.5189 13.9502 46.343 16.1179 43.3594C17.0383 42.0925 18.3209 41.2444 19.7205 40.8537L19.6717 40.8183L39.5929 31.811L37.7413 53.9467L37.6926 53.9112C37.7535 55.363 37.3433 56.8449 36.4228 58.1119C34.2551 61.0953 30.0792 61.7569 27.0957 59.5891C25.0444 58.0988 24.0908 55.6593 24.3995 53.3106C22.2612 54.33 19.6463 54.1769 17.5952 52.6866ZM28.4694 46.9255C29.0352 47.3366 29.8575 47.1695 30.3059 46.5522C30.6003 46.147 30.6604 45.6486 30.507 45.2376L39.5929 31.811L29.5886 44.4807C29.1088 44.4029 28.5836 44.6137 28.2568 45.0634C27.8083 45.6807 27.9035 46.5144 28.4694 46.9255Z" fill="black"/>
<path d="M54.0034 59.1284C51.0199 61.2962 46.844 60.6347 44.6763 57.6513C43.7558 56.3844 43.3456 54.9025 43.4065 53.4507L43.3578 53.4861L40.9473 31.7566L40.9474 31.7566L49.9054 45.1862C49.6832 45.6186 49.7212 46.1832 50.048 46.633C50.4965 47.2503 51.3188 47.4174 51.8847 47.0063C52.4505 46.5952 52.5456 45.7615 52.0972 45.1442C51.8027 44.739 51.3473 44.5278 50.9091 44.5467L40.9474 31.7566L61.4273 40.3578L61.3785 40.3932C62.7781 40.7839 64.0605 41.632 64.9812 42.8989C67.149 45.8824 66.4874 50.0583 63.5039 52.226C61.4527 53.7163 58.8379 53.8695 56.6995 52.8501C57.0083 55.1987 56.0546 57.6381 54.0034 59.1284Z" fill="black"/>
<path d="M13.937 85.4954C13.7237 85.4954 13.553 85.4527 13.425 85.3674C13.3183 85.2821 13.265 85.1754 13.265 85.0474C13.265 84.9194 13.329 84.8127 13.457 84.7274C13.6063 84.6421 13.7877 84.6101 14.001 84.6314C14.513 84.6741 14.8863 84.6954 15.121 84.6954C15.761 84.6954 16.273 84.5994 16.657 84.4074C17.041 84.1941 17.297 83.8421 17.425 83.3514C17.6383 82.5834 17.745 79.6714 17.745 74.6154C17.745 69.5594 17.6383 66.6474 17.425 65.8794C17.297 65.3887 17.041 65.0474 16.657 64.8554C16.273 64.6421 15.761 64.5354 15.121 64.5354C14.8863 64.5354 14.513 64.5567 14.001 64.5994H13.873C13.681 64.5994 13.5317 64.5567 13.425 64.4714C13.3183 64.3861 13.265 64.2794 13.265 64.1514C13.265 64.0447 13.3183 63.9487 13.425 63.8634C13.553 63.7781 13.7237 63.7354 13.937 63.7354H18.353C18.6517 63.7354 18.9183 63.7781 19.153 63.8634C19.409 63.9274 19.5797 64.0234 19.665 64.1514C21.905 67.7354 23.8997 70.7541 25.649 73.2074C27.3983 75.6394 29.425 78.2101 31.729 80.9194C31.8357 81.0687 31.9423 81.1434 32.049 81.1434C32.2197 81.1434 32.305 81.0047 32.305 80.7274L32.337 66.3594C32.337 65.6981 32.081 65.2287 31.569 64.9514C31.0783 64.6741 30.4703 64.5354 29.745 64.5354C29.489 64.5354 29.169 64.5567 28.785 64.5994H28.689C28.5183 64.5994 28.3903 64.5567 28.305 64.4714C28.2197 64.3861 28.177 64.2794 28.177 64.1514C28.177 64.0447 28.2197 63.9487 28.305 63.8634C28.4117 63.7781 28.5503 63.7354 28.721 63.7354H36.337C36.5077 63.7354 36.6357 63.7781 36.721 63.8634C36.8277 63.9487 36.881 64.0554 36.881 64.1834C36.881 64.3114 36.8277 64.4181 36.721 64.5034C36.6143 64.5887 36.465 64.6207 36.273 64.5994C36.145 64.5781 35.9423 64.5674 35.665 64.5674C35.0677 64.5674 34.577 64.7167 34.193 65.0154C33.809 65.3141 33.617 65.7621 33.617 66.3594V84.1194C33.617 84.5674 33.521 84.9087 33.329 85.1434C33.1583 85.3567 32.9343 85.4634 32.657 85.4634C32.3797 85.4634 32.1557 85.3461 31.985 85.1114C30.1503 82.6794 27.5797 79.1594 24.273 74.5514C21.4143 70.5834 19.889 68.4714 19.697 68.2154C19.6117 68.0661 19.505 67.9914 19.377 67.9914C19.2063 67.9914 19.121 68.1194 19.121 68.3754C19.0357 70.0181 18.993 72.3114 18.993 75.2554C18.993 77.2394 19.0143 78.9887 19.057 80.5034C19.121 82.0181 19.1957 82.9674 19.281 83.3514C19.409 83.8421 19.665 84.1941 20.049 84.4074C20.433 84.5994 20.945 84.6954 21.585 84.6954C21.8197 84.6954 22.193 84.6741 22.705 84.6314H22.833C23.025 84.6314 23.1743 84.6741 23.281 84.7594C23.3877 84.8447 23.441 84.9514 23.441 85.0794C23.441 85.1861 23.377 85.2821 23.249 85.3674C23.1423 85.4527 22.9823 85.4954 22.769 85.4954H13.937ZM43.3145 85.5274C42.2905 85.5274 41.3092 85.3034 40.3705 84.8554C39.4318 84.4074 38.6638 83.7247 38.0665 82.8074C37.4905 81.8901 37.2025 80.7807 37.2025 79.4794C37.2025 78.1567 37.5012 77.0367 38.0985 76.1194C38.6958 75.2021 39.4532 74.5194 40.3705 74.0714C41.3092 73.6021 42.2905 73.3674 43.3145 73.3674C44.3385 73.3674 45.3198 73.6021 46.2585 74.0714C47.1972 74.5194 47.9652 75.2021 48.5625 76.1194C49.1598 77.0367 49.4585 78.1567 49.4585 79.4794C49.4585 80.7807 49.1598 81.8901 48.5625 82.8074C47.9652 83.7247 47.1972 84.4074 46.2585 84.8554C45.3198 85.3034 44.3385 85.5274 43.3145 85.5274ZM43.3145 84.6954C44.4238 84.6954 45.3092 84.2154 45.9705 83.2554C46.6318 82.2954 46.9625 81.0261 46.9625 79.4474C46.9625 77.8901 46.6212 76.6314 45.9385 75.6714C45.2772 74.6901 44.4025 74.1994 43.3145 74.1994C42.2265 74.1994 41.3412 74.6901 40.6585 75.6714C39.9972 76.6314 39.6665 77.8901 39.6665 79.4474C39.6665 81.0047 39.9972 82.2741 40.6585 83.2554C41.3412 84.2154 42.2265 84.6954 43.3145 84.6954ZM53.4218 71.2554C52.9311 71.2554 52.5044 71.0847 52.1418 70.7434C51.8004 70.3807 51.6298 69.9541 51.6298 69.4634C51.6298 68.9514 51.8004 68.5247 52.1418 68.1834C52.5044 67.8207 52.9311 67.6394 53.4218 67.6394C53.9124 67.6394 54.3284 67.8207 54.6698 68.1834C55.0324 68.5247 55.2138 68.9514 55.2138 69.4634C55.2138 69.9541 55.0324 70.3807 54.6698 70.7434C54.3284 71.0847 53.9124 71.2554 53.4218 71.2554ZM51.0858 85.4954C50.8724 85.4954 50.7018 85.4527 50.5738 85.3674C50.4671 85.2821 50.4138 85.1754 50.4138 85.0474C50.4138 84.8981 50.4778 84.7807 50.6058 84.6954C50.7338 84.6101 50.9151 84.5887 51.1497 84.6314C51.7898 84.7594 52.2164 84.4181 52.4298 83.6074C52.5578 83.1381 52.6218 82.4127 52.6218 81.4314C52.6218 80.7274 52.6111 80.1834 52.5898 79.7994L52.5578 77.6554C52.5578 77.0794 52.4618 76.6207 52.2698 76.2794C52.0991 75.9167 51.8111 75.7354 51.4058 75.7354C51.1924 75.7354 51.0218 75.7034 50.8938 75.6394C50.7871 75.5754 50.7338 75.4901 50.7338 75.3834C50.7338 75.2981 50.7871 75.2127 50.8938 75.1274C51.0218 75.0207 51.1924 74.9461 51.4058 74.9034C52.0671 74.7327 52.7498 74.3807 53.4538 73.8474C53.5391 73.8047 53.6884 73.7194 53.9018 73.5914C54.1151 73.4421 54.2858 73.3674 54.4138 73.3674C54.7124 73.3674 54.8618 73.4954 54.8618 73.7514L54.7977 75.0314L54.6698 77.2394C54.6271 78.0287 54.6058 79.0741 54.6058 80.3754C54.6058 81.8901 54.6591 82.9674 54.7658 83.6074C54.8298 83.9701 54.9471 84.2367 55.1178 84.4074C55.2884 84.5781 55.5338 84.6634 55.8538 84.6634C56.0031 84.6634 56.1311 84.6527 56.2378 84.6314L56.4298 84.5994C56.6004 84.5994 56.7284 84.6421 56.8138 84.7274C56.9204 84.8127 56.9738 84.9194 56.9738 85.0474C56.9738 85.1754 56.9098 85.2821 56.7818 85.3674C56.6751 85.4527 56.5151 85.4954 56.3018 85.4954H53.6458H51.0858ZM57.9213 75.3834C57.9213 75.2981 57.9746 75.2127 58.0813 75.1274C58.2093 75.0207 58.3799 74.9461 58.5933 74.9034C59.2546 74.7327 59.9373 74.3807 60.6413 73.8474C60.7266 73.8047 60.8759 73.7194 61.0893 73.5914C61.3026 73.4421 61.4733 73.3674 61.6013 73.3674C61.8999 73.3674 62.0493 73.4954 62.0493 73.7514C62.0493 74.0927 62.0386 74.4021 62.0173 74.6794V74.7434C62.0173 74.8714 62.0493 74.9461 62.1133 74.9674C62.1773 74.9887 62.2626 74.9461 62.3693 74.8394C62.8386 74.3487 63.3613 73.9861 63.9373 73.7514C64.5346 73.4954 65.0893 73.3674 65.6013 73.3674C65.8786 73.3674 66.1026 73.3994 66.2733 73.4634C66.7853 73.6341 67.0413 73.9434 67.0413 74.3914C67.0413 74.7114 66.9133 74.9994 66.6573 75.2554C66.4013 75.5114 66.1026 75.6394 65.7613 75.6394C65.5693 75.6394 65.4306 75.6181 65.3453 75.5754C64.8973 75.4261 64.5133 75.3514 64.1933 75.3514C63.6386 75.3514 63.1479 75.5221 62.7213 75.8634C62.3159 76.2047 62.0279 76.7061 61.8573 77.3674C61.7933 78.5194 61.7613 79.5327 61.7613 80.4074C61.7613 81.7727 61.8253 82.8394 61.9533 83.6074C62.0173 83.9701 62.1346 84.2367 62.3053 84.4074C62.4759 84.5781 62.7213 84.6634 63.0413 84.6634C63.1906 84.6634 63.3186 84.6527 63.4253 84.6314L63.6173 84.5994C63.7879 84.5994 63.9159 84.6421 64.0013 84.7274C64.1079 84.8127 64.1613 84.9194 64.1613 85.0474C64.1613 85.1754 64.0973 85.2821 63.9693 85.3674C63.8626 85.4527 63.7026 85.4954 63.4893 85.4954H58.2733C58.0599 85.4954 57.8893 85.4527 57.7613 85.3674C57.6546 85.2821 57.6013 85.1754 57.6013 85.0474C57.6013 84.8981 57.6653 84.7807 57.7933 84.6954C57.9213 84.6101 58.1026 84.5887 58.3372 84.6314C58.6573 84.6954 58.9239 84.6421 59.1373 84.4714C59.3719 84.2794 59.5319 83.9914 59.6173 83.6074C59.7239 83.0741 59.7773 82.2314 59.7773 81.0794L59.7453 77.6554C59.7453 77.0794 59.6493 76.6207 59.4573 76.2794C59.2866 75.9167 58.9986 75.7354 58.5933 75.7354C58.3799 75.7354 58.2093 75.7034 58.0813 75.6394C57.9746 75.5754 57.9213 75.4901 57.9213 75.3834Z" fill="black"/>
</svg>
